G04*
G04 #@! TF.GenerationSoftware,Altium Limited,Altium Designer,25.2.1 (25)*
G04*
G04 Layer_Color=255*
%FSLAX44Y44*%
%MOMM*%
G71*
G04*
G04 #@! TF.SameCoordinates,6E252725-9D57-42C9-A0AC-82CA327B04A9*
G04*
G04*
G04 #@! TF.FilePolarity,Positive*
G04*
G01*
G75*
%ADD60C,1.9500*%
%ADD61R,1.9500X1.9500*%
%ADD62C,2.5000*%
%ADD63R,2.5000X2.5000*%
%ADD64R,1.1300X1.1300*%
%ADD65C,1.1300*%
%ADD66C,1.5080*%
%ADD67R,1.5080X1.5080*%
%ADD68R,1.5080X1.5080*%
%ADD69O,1.0000X1.8000*%
%ADD70O,1.0000X2.1000*%
%ADD71C,0.6500*%
%ADD72C,1.6500*%
G04:AMPARAMS|DCode=73|XSize=1.65mm|YSize=1.65mm|CornerRadius=0.4125mm|HoleSize=0mm|Usage=FLASHONLY|Rotation=0.000|XOffset=0mm|YOffset=0mm|HoleType=Round|Shape=RoundedRectangle|*
%AMROUNDEDRECTD73*
21,1,1.6500,0.8250,0,0,0.0*
21,1,0.8250,1.6500,0,0,0.0*
1,1,0.8250,0.4125,-0.4125*
1,1,0.8250,-0.4125,-0.4125*
1,1,0.8250,-0.4125,0.4125*
1,1,0.8250,0.4125,0.4125*
%
%ADD73ROUNDEDRECTD73*%
D60*
X707628Y314560D02*
D03*
X832628D02*
D03*
X707628Y264560D02*
D03*
D61*
X832628D02*
D03*
D62*
X640026Y574802D02*
D03*
D63*
X716026D02*
D03*
D64*
X400380Y261620D02*
D03*
X166040Y441960D02*
D03*
D65*
X400380Y287020D02*
D03*
Y312420D02*
D03*
Y337820D02*
D03*
Y363220D02*
D03*
Y388620D02*
D03*
Y414020D02*
D03*
Y439420D02*
D03*
X320980D02*
D03*
Y414020D02*
D03*
Y388620D02*
D03*
Y363220D02*
D03*
Y337820D02*
D03*
Y312420D02*
D03*
Y287020D02*
D03*
Y261620D02*
D03*
X245440Y441960D02*
D03*
Y416560D02*
D03*
Y391160D02*
D03*
Y365760D02*
D03*
Y340360D02*
D03*
Y314960D02*
D03*
Y289560D02*
D03*
Y264160D02*
D03*
X166040D02*
D03*
Y289560D02*
D03*
Y314960D02*
D03*
Y340360D02*
D03*
Y365760D02*
D03*
Y391160D02*
D03*
Y416560D02*
D03*
D66*
X487680Y474980D02*
D03*
X406400Y558800D02*
D03*
X292100Y599440D02*
D03*
X177800Y558800D02*
D03*
X93980Y474980D02*
D03*
X60960Y355600D02*
D03*
X91440Y233680D02*
D03*
X177800Y152400D02*
D03*
X292100Y111760D02*
D03*
X406400Y149860D02*
D03*
X485140Y236220D02*
D03*
X509016Y361950D02*
D03*
X797306Y439166D02*
D03*
D67*
X462280Y474980D02*
D03*
X381000Y558800D02*
D03*
X266700Y599440D02*
D03*
X152400Y558800D02*
D03*
X68580Y474980D02*
D03*
X35560Y355600D02*
D03*
X66040Y233680D02*
D03*
X152400Y152400D02*
D03*
X266700Y111760D02*
D03*
X381000Y149860D02*
D03*
X459740Y236220D02*
D03*
X483616Y361950D02*
D03*
D68*
X797306Y464566D02*
D03*
D69*
X560502Y35082D02*
D03*
X646902D02*
D03*
D70*
X560502Y76882D02*
D03*
X646902D02*
D03*
D71*
X632602Y71882D02*
D03*
X574802D02*
D03*
D72*
X443484Y110758D02*
D03*
X468884D02*
D03*
X494284D02*
D03*
D73*
X519684D02*
D03*
M02*
