G04*
G04 #@! TF.GenerationSoftware,Altium Limited,Altium Designer,25.2.1 (25)*
G04*
G04 Layer_Color=32768*
%FSLAX44Y44*%
%MOMM*%
G71*
G04*
G04 #@! TF.SameCoordinates,6E252725-9D57-42C9-A0AC-82CA327B04A9*
G04*
G04*
G04 #@! TF.FilePolarity,Positive*
G04*
G01*
G75*
%ADD14C,0.0500*%
%ADD77C,0.1000*%
D14*
X789602Y177516D02*
Y205516D01*
X842602Y177516D02*
Y205516D01*
X789602D02*
X842602D01*
X789602Y177516D02*
X842602D01*
X705536Y174984D02*
X759536D01*
X705536Y203984D02*
X759536D01*
Y174984D02*
Y203984D01*
X705536Y174984D02*
Y203984D01*
X770806Y379700D02*
Y407700D01*
X823806Y379700D02*
Y407700D01*
X770806D02*
X823806D01*
X770806Y379700D02*
X823806D01*
X201092Y463274D02*
X255092D01*
X201092Y492274D02*
X255092D01*
Y463274D02*
Y492274D01*
X201092Y463274D02*
Y492274D01*
X305994Y242846D02*
X359994D01*
X305994Y213846D02*
X359994D01*
X305994D02*
Y242846D01*
X359994Y213846D02*
Y242846D01*
X446702Y513812D02*
X499702D01*
X446702Y541812D02*
X499702D01*
Y513812D02*
Y541812D01*
X446702Y513812D02*
Y541812D01*
X304208Y516352D02*
X357208D01*
X304208Y544352D02*
X357208D01*
Y516352D02*
Y544352D01*
X304208Y516352D02*
Y544352D01*
X225214Y529560D02*
X278214D01*
X225214Y557560D02*
X278214D01*
Y529560D02*
Y557560D01*
X225214Y529560D02*
Y557560D01*
X125760Y517060D02*
Y570060D01*
X97760Y517060D02*
Y570060D01*
X125760D01*
X97760Y517060D02*
X125760D01*
X55034Y435132D02*
X108034D01*
X55034Y407132D02*
X108034D01*
X55034D02*
Y435132D01*
X108034Y407132D02*
Y435132D01*
X87546Y357154D02*
X140546D01*
X87546Y329154D02*
X140546D01*
X87546D02*
Y357154D01*
X140546Y329154D02*
Y357154D01*
X75608Y303560D02*
X128608D01*
X75608Y275560D02*
X128608D01*
X75608D02*
Y303560D01*
X128608Y275560D02*
Y303560D01*
X146982Y200884D02*
X199982D01*
X146982Y228884D02*
X199982D01*
Y200884D02*
Y228884D01*
X146982Y200884D02*
Y228884D01*
X275760Y180370D02*
X328760D01*
X275760Y152370D02*
X328760D01*
X275760D02*
Y180370D01*
X328760Y152370D02*
Y180370D01*
X382694Y217200D02*
X435694D01*
X382694Y189200D02*
X435694D01*
X382694D02*
Y217200D01*
X435694Y189200D02*
Y217200D01*
X460672Y278862D02*
X513672D01*
X460672Y306862D02*
X513672D01*
Y278862D02*
Y306862D01*
X460672Y278862D02*
Y306862D01*
X450118Y331386D02*
Y384386D01*
X422118Y331386D02*
Y384386D01*
X450118D01*
X422118Y331386D02*
X450118D01*
X530076Y449402D02*
X559076D01*
X530076Y395402D02*
X559076D01*
Y449402D01*
X530076Y395402D02*
Y449402D01*
X527482Y236452D02*
X581482D01*
X527482Y265452D02*
X581482D01*
Y236452D02*
Y265452D01*
X527482Y236452D02*
Y265452D01*
X580060Y207794D02*
X634060D01*
X580060Y178794D02*
X634060D01*
X580060D02*
Y207794D01*
X634060Y178794D02*
Y207794D01*
X625326Y417500D02*
X654326D01*
X625326Y471500D02*
X654326D01*
X625326Y417500D02*
Y471500D01*
X654326Y417500D02*
Y471500D01*
X579860Y418516D02*
X608860D01*
X579860Y472516D02*
X608860D01*
X579860Y418516D02*
Y472516D01*
X608860Y418516D02*
Y472516D01*
X741404Y89332D02*
Y143332D01*
X770404Y89332D02*
Y143332D01*
X741404Y89332D02*
X770404D01*
X741404Y143332D02*
X770404D01*
X700764Y89332D02*
Y143332D01*
X729764Y89332D02*
Y143332D01*
X700764Y89332D02*
X729764D01*
X700764Y143332D02*
X729764D01*
X537180Y106850D02*
X565180D01*
X537180Y159850D02*
X565180D01*
X537180Y106850D02*
Y159850D01*
X565180Y106850D02*
Y159850D01*
X662402Y159342D02*
X690402D01*
X662402Y106342D02*
X690402D01*
Y159342D01*
X662402Y106342D02*
Y159342D01*
X546578Y228684D02*
X574578D01*
X546578Y175684D02*
X574578D01*
Y228684D01*
X546578Y175684D02*
Y228684D01*
X431716Y637062D02*
X484716D01*
X431716Y609062D02*
X484716D01*
X431716D02*
Y637062D01*
X484716Y609062D02*
Y637062D01*
X431716Y588802D02*
X484716D01*
X431716Y560802D02*
X484716D01*
X431716D02*
Y588802D01*
X484716Y560802D02*
Y588802D01*
X637256Y228430D02*
X665256D01*
X637256Y175430D02*
X665256D01*
Y228430D01*
X637256Y175430D02*
Y228430D01*
X847060Y355938D02*
X875060D01*
X847060Y302938D02*
X875060D01*
Y355938D01*
X847060Y302938D02*
Y355938D01*
D77*
X811102Y191516D02*
X821102D01*
X816102Y186516D02*
Y196516D01*
X732536Y184484D02*
Y194484D01*
X727536Y189484D02*
X737536D01*
X792306Y393700D02*
X802306D01*
X797306Y388700D02*
Y398700D01*
X228092Y472774D02*
Y482774D01*
X223092Y477774D02*
X233092D01*
X332994Y223346D02*
Y233346D01*
X327994Y228346D02*
X337994D01*
X473202Y522812D02*
Y532812D01*
X468202Y527812D02*
X478202D01*
X330708Y525352D02*
Y535352D01*
X325708Y530352D02*
X335708D01*
X251714Y538560D02*
Y548560D01*
X246714Y543560D02*
X256714D01*
X106760D02*
X116760D01*
X111760Y538560D02*
Y548560D01*
X81534Y416132D02*
Y426132D01*
X76534Y421132D02*
X86534D01*
X114046Y338154D02*
Y348154D01*
X109046Y343154D02*
X119046D01*
X102108Y284560D02*
Y294560D01*
X97108Y289560D02*
X107108D01*
X173482Y209884D02*
Y219884D01*
X168482Y214884D02*
X178482D01*
X302260Y161370D02*
Y171370D01*
X297260Y166370D02*
X307260D01*
X409194Y198200D02*
Y208200D01*
X404194Y203200D02*
X414194D01*
X487172Y287862D02*
Y297862D01*
X482172Y292862D02*
X492172D01*
X431118Y357886D02*
X441118D01*
X436118Y352886D02*
Y362886D01*
X544576Y417402D02*
Y427402D01*
X539576Y422402D02*
X549576D01*
X554482Y245952D02*
Y255952D01*
X549482Y250952D02*
X559482D01*
X607060Y188294D02*
Y198294D01*
X602060Y193294D02*
X612060D01*
X639826Y439500D02*
Y449500D01*
X634826Y444500D02*
X644826D01*
X594360Y440516D02*
Y450516D01*
X589360Y445516D02*
X599360D01*
X750904Y116332D02*
X760904D01*
X755904Y111332D02*
Y121332D01*
X710264Y116332D02*
X720264D01*
X715264Y111332D02*
Y121332D01*
X551180Y128350D02*
Y138350D01*
X546180Y133350D02*
X556180D01*
X676402Y127842D02*
Y137842D01*
X671402Y132842D02*
X681402D01*
X560578Y197184D02*
Y207184D01*
X555578Y202184D02*
X565578D01*
X458216Y618062D02*
Y628062D01*
X453216Y623062D02*
X463216D01*
X458216Y569802D02*
Y579802D01*
X453216Y574802D02*
X463216D01*
X651256Y196930D02*
Y206930D01*
X646256Y201930D02*
X656256D01*
X861060Y324438D02*
Y334438D01*
X856060Y329438D02*
X866060D01*
M02*
