G04*
G04 #@! TF.GenerationSoftware,Altium Limited,Altium Designer,25.2.1 (25)*
G04*
G04 Layer_Color=255*
%FSLAX44Y44*%
%MOMM*%
G71*
G04*
G04 #@! TF.SameCoordinates,6E252725-9D57-42C9-A0AC-82CA327B04A9*
G04*
G04*
G04 #@! TF.FilePolarity,Positive*
G04*
G01*
G75*
%ADD17R,1.2500X1.8000*%
%ADD18R,1.3000X1.8500*%
%ADD19R,2.5000X1.7000*%
%ADD20R,1.8000X1.2500*%
%ADD21R,1.8500X1.3000*%
%ADD22R,0.6000X1.1500*%
%ADD23R,0.3000X1.1500*%
%ADD24R,1.0200X1.0000*%
%ADD25R,2.7000X1.0000*%
%ADD26R,6.2000X6.2000*%
G04:AMPARAMS|DCode=27|XSize=1.31mm|YSize=0.62mm|CornerRadius=0.0775mm|HoleSize=0mm|Usage=FLASHONLY|Rotation=90.000|XOffset=0mm|YOffset=0mm|HoleType=Round|Shape=RoundedRectangle|*
%AMROUNDEDRECTD27*
21,1,1.3100,0.4650,0,0,90.0*
21,1,1.1550,0.6200,0,0,90.0*
1,1,0.1550,0.2325,0.5775*
1,1,0.1550,0.2325,-0.5775*
1,1,0.1550,-0.2325,-0.5775*
1,1,0.1550,-0.2325,0.5775*
%
%ADD27ROUNDEDRECTD27*%
G04:AMPARAMS|DCode=28|XSize=1.21mm|YSize=0.59mm|CornerRadius=0.0738mm|HoleSize=0mm|Usage=FLASHONLY|Rotation=90.000|XOffset=0mm|YOffset=0mm|HoleType=Round|Shape=RoundedRectangle|*
%AMROUNDEDRECTD28*
21,1,1.2100,0.4425,0,0,90.0*
21,1,1.0625,0.5900,0,0,90.0*
1,1,0.1475,0.2213,0.5313*
1,1,0.1475,0.2213,-0.5313*
1,1,0.1475,-0.2213,-0.5313*
1,1,0.1475,-0.2213,0.5313*
%
%ADD28ROUNDEDRECTD28*%
%ADD29R,0.4500X1.5000*%
%ADD60C,1.9500*%
%ADD61R,1.9500X1.9500*%
%ADD62C,2.5000*%
%ADD63R,2.5000X2.5000*%
%ADD64R,1.1300X1.1300*%
%ADD65C,1.1300*%
%ADD66C,1.5080*%
%ADD67R,1.5080X1.5080*%
%ADD68R,1.5080X1.5080*%
%ADD69O,1.0000X1.8000*%
%ADD70O,1.0000X2.1000*%
%ADD71C,0.6500*%
%ADD72C,1.6500*%
G04:AMPARAMS|DCode=73|XSize=1.65mm|YSize=1.65mm|CornerRadius=0.4125mm|HoleSize=0mm|Usage=FLASHONLY|Rotation=0.000|XOffset=0mm|YOffset=0mm|HoleType=Round|Shape=RoundedRectangle|*
%AMROUNDEDRECTD73*
21,1,1.6500,0.8250,0,0,0.0*
21,1,0.8250,1.6500,0,0,0.0*
1,1,0.8250,0.4125,-0.4125*
1,1,0.8250,-0.4125,-0.4125*
1,1,0.8250,-0.4125,0.4125*
1,1,0.8250,0.4125,0.4125*
%
%ADD73ROUNDEDRECTD73*%
D17*
X800852Y191516D02*
D03*
X831352D02*
D03*
X782056Y393700D02*
D03*
X812556D02*
D03*
X488452Y527812D02*
D03*
X457952D02*
D03*
X345958Y530352D02*
D03*
X315458D02*
D03*
X266964Y543560D02*
D03*
X236464D02*
D03*
X66284Y421132D02*
D03*
X96784D02*
D03*
X98796Y343154D02*
D03*
X129296D02*
D03*
X86858Y289560D02*
D03*
X117358D02*
D03*
X188732Y214884D02*
D03*
X158232D02*
D03*
X287010Y166370D02*
D03*
X317510D02*
D03*
X393944Y203200D02*
D03*
X424444D02*
D03*
X502422Y292862D02*
D03*
X471922D02*
D03*
X442966Y623062D02*
D03*
X473466D02*
D03*
X442966Y574802D02*
D03*
X473466D02*
D03*
D18*
X748036Y189484D02*
D03*
X717036D02*
D03*
X243592Y477774D02*
D03*
X212592D02*
D03*
X317494Y228346D02*
D03*
X348494D02*
D03*
X569982Y250952D02*
D03*
X538982D02*
D03*
X591560Y193294D02*
D03*
X622560D02*
D03*
D19*
X538038Y524002D02*
D03*
X578038D02*
D03*
D20*
X111760Y558810D02*
D03*
Y528310D02*
D03*
X436118Y373136D02*
D03*
Y342636D02*
D03*
X551180Y118100D02*
D03*
Y148600D02*
D03*
X676402Y148092D02*
D03*
Y117592D02*
D03*
X560578Y217434D02*
D03*
Y186934D02*
D03*
X651256Y217180D02*
D03*
Y186680D02*
D03*
X861060Y344688D02*
D03*
Y314188D02*
D03*
D21*
X544576Y437902D02*
D03*
Y406902D02*
D03*
X639826Y429000D02*
D03*
Y460000D02*
D03*
X594360Y430016D02*
D03*
Y461016D02*
D03*
X755904Y100832D02*
D03*
Y131832D02*
D03*
X715264Y100832D02*
D03*
Y131832D02*
D03*
D22*
X571702Y82632D02*
D03*
X635702D02*
D03*
X579702D02*
D03*
X627702D02*
D03*
D23*
X606202D02*
D03*
X601202D02*
D03*
X611202D02*
D03*
X616202D02*
D03*
X621202D02*
D03*
X596202D02*
D03*
X591202D02*
D03*
X586202D02*
D03*
D24*
X517396Y600202D02*
D03*
D25*
X509696Y577202D02*
D03*
Y623202D02*
D03*
D26*
X569696Y600202D02*
D03*
D27*
X548386Y371162D02*
D03*
X561086D02*
D03*
X573786D02*
D03*
X586486D02*
D03*
X599186D02*
D03*
X611886D02*
D03*
X624586D02*
D03*
X637286D02*
D03*
Y316162D02*
D03*
X624586D02*
D03*
X611886D02*
D03*
X599186D02*
D03*
X586486D02*
D03*
X573786D02*
D03*
X561086D02*
D03*
X548386D02*
D03*
D28*
X597052Y142898D02*
D03*
X606552D02*
D03*
X616052D02*
D03*
Y167998D02*
D03*
X606552D02*
D03*
X597052D02*
D03*
D29*
X731052Y466134D02*
D03*
X724552D02*
D03*
X718052D02*
D03*
X711552D02*
D03*
X705052D02*
D03*
X698552D02*
D03*
X692052D02*
D03*
X685552D02*
D03*
X679052D02*
D03*
X672552D02*
D03*
Y408134D02*
D03*
X679052D02*
D03*
X685552D02*
D03*
X692052D02*
D03*
X698552D02*
D03*
X705052D02*
D03*
X711552D02*
D03*
X718052D02*
D03*
X724552D02*
D03*
X731052D02*
D03*
D60*
X707628Y314560D02*
D03*
X832628D02*
D03*
X707628Y264560D02*
D03*
D61*
X832628D02*
D03*
D62*
X640026Y574802D02*
D03*
D63*
X716026D02*
D03*
D64*
X400380Y261620D02*
D03*
X166040Y441960D02*
D03*
D65*
X400380Y287020D02*
D03*
Y312420D02*
D03*
Y337820D02*
D03*
Y363220D02*
D03*
Y388620D02*
D03*
Y414020D02*
D03*
Y439420D02*
D03*
X320980D02*
D03*
Y414020D02*
D03*
Y388620D02*
D03*
Y363220D02*
D03*
Y337820D02*
D03*
Y312420D02*
D03*
Y287020D02*
D03*
Y261620D02*
D03*
X245440Y441960D02*
D03*
Y416560D02*
D03*
Y391160D02*
D03*
Y365760D02*
D03*
Y340360D02*
D03*
Y314960D02*
D03*
Y289560D02*
D03*
Y264160D02*
D03*
X166040D02*
D03*
Y289560D02*
D03*
Y314960D02*
D03*
Y340360D02*
D03*
Y365760D02*
D03*
Y391160D02*
D03*
Y416560D02*
D03*
D66*
X487680Y474980D02*
D03*
X406400Y558800D02*
D03*
X292100Y599440D02*
D03*
X177800Y558800D02*
D03*
X93980Y474980D02*
D03*
X60960Y355600D02*
D03*
X91440Y233680D02*
D03*
X177800Y152400D02*
D03*
X292100Y111760D02*
D03*
X406400Y149860D02*
D03*
X485140Y236220D02*
D03*
X509016Y361950D02*
D03*
X797306Y439166D02*
D03*
D67*
X462280Y474980D02*
D03*
X381000Y558800D02*
D03*
X266700Y599440D02*
D03*
X152400Y558800D02*
D03*
X68580Y474980D02*
D03*
X35560Y355600D02*
D03*
X66040Y233680D02*
D03*
X152400Y152400D02*
D03*
X266700Y111760D02*
D03*
X381000Y149860D02*
D03*
X459740Y236220D02*
D03*
X483616Y361950D02*
D03*
D68*
X797306Y464566D02*
D03*
D69*
X560502Y35082D02*
D03*
X646902D02*
D03*
D70*
X560502Y76882D02*
D03*
X646902D02*
D03*
D71*
X632602Y71882D02*
D03*
X574802D02*
D03*
D72*
X443484Y110758D02*
D03*
X468884D02*
D03*
X494284D02*
D03*
D73*
X519684D02*
D03*
M02*
