G04*
G04 #@! TF.GenerationSoftware,Altium Limited,Altium Designer,25.2.1 (25)*
G04*
G04 Layer_Color=32768*
%FSLAX44Y44*%
%MOMM*%
G71*
G04*
G04 #@! TF.SameCoordinates,6E252725-9D57-42C9-A0AC-82CA327B04A9*
G04*
G04*
G04 #@! TF.FilePolarity,Positive*
G04*
G01*
G75*
%ADD11C,0.1270*%
%ADD14C,0.0500*%
D11*
X510980Y474980D02*
G03*
X510980Y474980I-36000J0D01*
G01*
X429700Y558800D02*
G03*
X429700Y558800I-36000J0D01*
G01*
X315400Y599440D02*
G03*
X315400Y599440I-36000J0D01*
G01*
X201100Y558800D02*
G03*
X201100Y558800I-36000J0D01*
G01*
X117280Y474980D02*
G03*
X117280Y474980I-36000J0D01*
G01*
X84260Y355600D02*
G03*
X84260Y355600I-36000J0D01*
G01*
X114740Y233680D02*
G03*
X114740Y233680I-36000J0D01*
G01*
X201100Y152400D02*
G03*
X201100Y152400I-36000J0D01*
G01*
X315400Y111760D02*
G03*
X315400Y111760I-36000J0D01*
G01*
X429700Y149860D02*
G03*
X429700Y149860I-36000J0D01*
G01*
X508440Y236220D02*
G03*
X508440Y236220I-36000J0D01*
G01*
X532316Y361950D02*
G03*
X532316Y361950I-36000J0D01*
G01*
X833306Y451866D02*
G03*
X833306Y451866I-36000J0D01*
G01*
D14*
X750026Y574802D02*
G03*
X750026Y574802I-72000J0D01*
G01*
X844878Y227060D02*
Y352060D01*
X695378D02*
X844878D01*
X695378Y227060D02*
Y352060D01*
Y227060D02*
X844878D01*
X593038Y508477D02*
Y539527D01*
X523038D02*
X593038D01*
X523038Y508477D02*
Y539527D01*
Y508477D02*
X593038D01*
X312830Y249570D02*
X408530D01*
X312830Y451470D02*
X408530D01*
X312830Y249570D02*
Y451470D01*
X408530Y249570D02*
Y451470D01*
X157890Y252110D02*
Y454010D01*
X253590Y252110D02*
Y454010D01*
X157890Y252110D02*
X253590D01*
X157890Y454010D02*
X253590D01*
X553002Y6582D02*
Y90882D01*
Y6582D02*
X654402D01*
Y90882D01*
X553002D02*
X654402D01*
X540336Y307112D02*
Y380212D01*
X645336D01*
Y307112D02*
Y380212D01*
X540336Y307112D02*
X645336D01*
X589427Y134348D02*
X623677D01*
Y176548D01*
X589427D02*
X623677D01*
X589427Y134348D02*
Y176548D01*
X737302Y398134D02*
Y476134D01*
X666302Y398134D02*
X737302D01*
X666302D02*
Y476134D01*
X737302D01*
M02*
