G04*
G04 #@! TF.GenerationSoftware,Altium Limited,Altium Designer,25.2.1 (25)*
G04*
G04 Layer_Color=8421504*
%FSLAX44Y44*%
%MOMM*%
G71*
G04*
G04 #@! TF.SameCoordinates,6E252725-9D57-42C9-A0AC-82CA327B04A9*
G04*
G04*
G04 #@! TF.FilePolarity,Positive*
G04*
G01*
G75*
%ADD17R,1.2500X1.8000*%
%ADD18R,1.3000X1.8500*%
%ADD19R,2.5000X1.7000*%
%ADD20R,1.8000X1.2500*%
%ADD21R,1.8500X1.3000*%
%ADD22R,0.6000X1.1500*%
%ADD23R,0.3000X1.1500*%
%ADD24R,1.0200X1.0000*%
%ADD25R,2.7000X1.0000*%
%ADD26R,6.2000X6.2000*%
G04:AMPARAMS|DCode=27|XSize=1.31mm|YSize=0.62mm|CornerRadius=0.0775mm|HoleSize=0mm|Usage=FLASHONLY|Rotation=90.000|XOffset=0mm|YOffset=0mm|HoleType=Round|Shape=RoundedRectangle|*
%AMROUNDEDRECTD27*
21,1,1.3100,0.4650,0,0,90.0*
21,1,1.1550,0.6200,0,0,90.0*
1,1,0.1550,0.2325,0.5775*
1,1,0.1550,0.2325,-0.5775*
1,1,0.1550,-0.2325,-0.5775*
1,1,0.1550,-0.2325,0.5775*
%
%ADD27ROUNDEDRECTD27*%
G04:AMPARAMS|DCode=28|XSize=1.21mm|YSize=0.59mm|CornerRadius=0.0738mm|HoleSize=0mm|Usage=FLASHONLY|Rotation=90.000|XOffset=0mm|YOffset=0mm|HoleType=Round|Shape=RoundedRectangle|*
%AMROUNDEDRECTD28*
21,1,1.2100,0.4425,0,0,90.0*
21,1,1.0625,0.5900,0,0,90.0*
1,1,0.1475,0.2213,0.5313*
1,1,0.1475,0.2213,-0.5313*
1,1,0.1475,-0.2213,-0.5313*
1,1,0.1475,-0.2213,0.5313*
%
%ADD28ROUNDEDRECTD28*%
%ADD29R,0.4500X1.5000*%
D17*
X800852Y191516D02*
D03*
X831352D02*
D03*
X782056Y393700D02*
D03*
X812556D02*
D03*
X488452Y527812D02*
D03*
X457952D02*
D03*
X345958Y530352D02*
D03*
X315458D02*
D03*
X266964Y543560D02*
D03*
X236464D02*
D03*
X66284Y421132D02*
D03*
X96784D02*
D03*
X98796Y343154D02*
D03*
X129296D02*
D03*
X86858Y289560D02*
D03*
X117358D02*
D03*
X188732Y214884D02*
D03*
X158232D02*
D03*
X287010Y166370D02*
D03*
X317510D02*
D03*
X393944Y203200D02*
D03*
X424444D02*
D03*
X502422Y292862D02*
D03*
X471922D02*
D03*
X442966Y623062D02*
D03*
X473466D02*
D03*
X442966Y574802D02*
D03*
X473466D02*
D03*
D18*
X748036Y189484D02*
D03*
X717036D02*
D03*
X243592Y477774D02*
D03*
X212592D02*
D03*
X317494Y228346D02*
D03*
X348494D02*
D03*
X569982Y250952D02*
D03*
X538982D02*
D03*
X591560Y193294D02*
D03*
X622560D02*
D03*
D19*
X538038Y524002D02*
D03*
X578038D02*
D03*
D20*
X111760Y558810D02*
D03*
Y528310D02*
D03*
X436118Y373136D02*
D03*
Y342636D02*
D03*
X551180Y118100D02*
D03*
Y148600D02*
D03*
X676402Y148092D02*
D03*
Y117592D02*
D03*
X560578Y217434D02*
D03*
Y186934D02*
D03*
X651256Y217180D02*
D03*
Y186680D02*
D03*
X861060Y344688D02*
D03*
Y314188D02*
D03*
D21*
X544576Y437902D02*
D03*
Y406902D02*
D03*
X639826Y429000D02*
D03*
Y460000D02*
D03*
X594360Y430016D02*
D03*
Y461016D02*
D03*
X755904Y100832D02*
D03*
Y131832D02*
D03*
X715264Y100832D02*
D03*
Y131832D02*
D03*
D22*
X571702Y82632D02*
D03*
X635702D02*
D03*
X579702D02*
D03*
X627702D02*
D03*
D23*
X606202D02*
D03*
X601202D02*
D03*
X611202D02*
D03*
X616202D02*
D03*
X621202D02*
D03*
X596202D02*
D03*
X591202D02*
D03*
X586202D02*
D03*
D24*
X517396Y600202D02*
D03*
D25*
X509696Y577202D02*
D03*
Y623202D02*
D03*
D26*
X569696Y600202D02*
D03*
D27*
X548386Y371162D02*
D03*
X561086D02*
D03*
X573786D02*
D03*
X586486D02*
D03*
X599186D02*
D03*
X611886D02*
D03*
X624586D02*
D03*
X637286D02*
D03*
Y316162D02*
D03*
X624586D02*
D03*
X611886D02*
D03*
X599186D02*
D03*
X586486D02*
D03*
X573786D02*
D03*
X561086D02*
D03*
X548386D02*
D03*
D28*
X597052Y142898D02*
D03*
X606552D02*
D03*
X616052D02*
D03*
Y167998D02*
D03*
X606552D02*
D03*
X597052D02*
D03*
D29*
X731052Y466134D02*
D03*
X724552D02*
D03*
X718052D02*
D03*
X711552D02*
D03*
X705052D02*
D03*
X698552D02*
D03*
X692052D02*
D03*
X685552D02*
D03*
X679052D02*
D03*
X672552D02*
D03*
Y408134D02*
D03*
X679052D02*
D03*
X685552D02*
D03*
X692052D02*
D03*
X698552D02*
D03*
X705052D02*
D03*
X711552D02*
D03*
X718052D02*
D03*
X724552D02*
D03*
X731052D02*
D03*
M02*
