G04*
G04 #@! TF.GenerationSoftware,Altium Limited,Altium Designer,25.2.1 (25)*
G04*
G04 Layer_Color=32768*
%FSLAX44Y44*%
%MOMM*%
G71*
G04*
G04 #@! TF.SameCoordinates,6E252725-9D57-42C9-A0AC-82CA327B04A9*
G04*
G04*
G04 #@! TF.FilePolarity,Positive*
G04*
G01*
G75*
%ADD77C,0.1000*%
D77*
X532384Y70358D02*
Y95758D01*
X522884D02*
Y113958D01*
X516484D02*
X522884D01*
X516484Y95758D02*
Y113958D01*
X497484Y95758D02*
Y113958D01*
X491084D02*
X497484D01*
X491084Y95758D02*
Y113958D01*
X430784Y95758D02*
X532384D01*
X430784Y70358D02*
X532384D01*
X472084Y95758D02*
Y113958D01*
X465684D02*
X472084D01*
X465684Y95758D02*
Y113958D01*
X446684Y95758D02*
Y113958D01*
X440284D02*
X446684D01*
X440284Y95758D02*
Y113958D01*
X430784Y70358D02*
Y95758D01*
X522884Y12358D02*
Y70358D01*
X516484Y12358D02*
Y70358D01*
X491084Y12358D02*
Y70358D01*
X497484Y12358D02*
Y70358D01*
X440284Y12358D02*
Y70358D01*
X446684Y12358D02*
Y70358D01*
X465684Y12358D02*
Y70358D01*
X472084Y12358D02*
Y70358D01*
X440284Y12358D02*
X443484Y10358D01*
X519684D02*
X522884Y12358D01*
X516484D02*
X519684Y10358D01*
X491084Y12358D02*
X494284Y10358D01*
X468884D02*
X472084Y12358D01*
X465684D02*
X468884Y10358D01*
X494284D02*
X497484Y12358D01*
X443484Y10358D02*
X446684Y12358D01*
M02*
