G04*
G04 #@! TF.GenerationSoftware,Altium Limited,Altium Designer,25.2.1 (25)*
G04*
G04 Layer_Color=16711935*
%FSLAX44Y44*%
%MOMM*%
G71*
G04*
G04 #@! TF.SameCoordinates,6E252725-9D57-42C9-A0AC-82CA327B04A9*
G04*
G04*
G04 #@! TF.FilePolarity,Positive*
G04*
G01*
G75*
%ADD10C,0.2000*%
%ADD11C,0.1270*%
%ADD15C,0.2032*%
%ADD77C,0.1000*%
G36*
X524510Y618744D02*
X497562D01*
Y627447D01*
X524510D01*
Y618744D01*
D02*
G37*
G36*
X594696Y621284D02*
Y579120D01*
X590696Y573702D01*
X580136D01*
Y626702D01*
X590696D01*
X594696Y621284D01*
D02*
G37*
G36*
X524510Y573024D02*
X497634D01*
Y581646D01*
X524510D01*
Y573024D01*
D02*
G37*
D10*
X841128Y244560D02*
G03*
X841128Y244560I-1000J0D01*
G01*
X597038Y524002D02*
G03*
X597038Y524002I-1000J0D01*
G01*
X412030Y261620D02*
G03*
X412030Y261620I-1000J0D01*
G01*
X156390Y441960D02*
G03*
X156390Y441960I-1000J0D01*
G01*
X572202Y95082D02*
G03*
X572202Y95082I-1000J0D01*
G01*
X536286Y316162D02*
G03*
X536286Y316162I-1000J0D01*
G01*
X598102Y129898D02*
G03*
X598102Y129898I-1000J0D01*
G01*
D11*
X747526Y574802D02*
G03*
X747526Y574802I-69500J0D01*
G01*
X710128Y229560D02*
Y349560D01*
X830128Y229560D02*
Y349560D01*
X710128Y279560D02*
Y299560D01*
X830128Y279560D02*
Y299560D01*
X710128Y229560D02*
X830128D01*
X710128Y349560D02*
X830128D01*
X758956Y563532D02*
Y583532D01*
X748956Y573532D02*
X768956D01*
X604366Y563372D02*
Y583372D01*
X579538Y510977D02*
Y537027D01*
X536538D02*
X579538D01*
X536538Y510977D02*
Y537027D01*
Y510977D02*
X579538D01*
X328930Y253995D02*
X392430D01*
X328930Y447045D02*
X392430D01*
Y253995D02*
Y447045D01*
X328930Y253995D02*
Y447045D01*
X237490Y256535D02*
Y449585D01*
X173990Y256535D02*
Y449585D01*
Y256535D02*
X237490D01*
X173990Y449585D02*
X237490D01*
X542836Y363162D02*
X642836D01*
X542836Y324162D02*
X642836D01*
Y363162D01*
X542836Y324162D02*
Y363162D01*
X591927Y147323D02*
Y163573D01*
X621177D01*
Y147323D02*
Y163573D01*
X591927Y147323D02*
X621177D01*
D15*
X580136Y574548D02*
Y625856D01*
Y574548D02*
X587248D01*
X591820Y579120D01*
Y621284D01*
X587248Y625856D02*
X591820Y621284D01*
X580136Y625856D02*
X587248D01*
X579696Y567702D02*
Y632702D01*
D77*
X559002Y82582D02*
X648402D01*
Y9082D02*
Y82582D01*
X559002Y9082D02*
X648402D01*
X559002D02*
Y82582D01*
M02*
