G04*
G04 #@! TF.GenerationSoftware,Altium Limited,Altium Designer,25.2.1 (25)*
G04*
G04 Layer_Color=8388736*
%FSLAX44Y44*%
%MOMM*%
G71*
G04*
G04 #@! TF.SameCoordinates,6E252725-9D57-42C9-A0AC-82CA327B04A9*
G04*
G04*
G04 #@! TF.FilePolarity,Negative*
G04*
G01*
G75*
%ADD30R,1.4532X2.0032*%
%ADD31R,1.5032X2.0532*%
%ADD32R,2.7032X1.9032*%
%ADD33R,2.0032X1.4532*%
%ADD34R,2.0532X1.5032*%
%ADD35R,0.7000X1.2500*%
%ADD36R,0.4000X1.2500*%
%ADD37R,1.2232X1.2032*%
%ADD38R,2.9032X1.2032*%
%ADD39R,6.4032X6.4032*%
G04:AMPARAMS|DCode=40|XSize=1.5132mm|YSize=0.8232mm|CornerRadius=0.1791mm|HoleSize=0mm|Usage=FLASHONLY|Rotation=90.000|XOffset=0mm|YOffset=0mm|HoleType=Round|Shape=RoundedRectangle|*
%AMROUNDEDRECTD40*
21,1,1.5132,0.4650,0,0,90.0*
21,1,1.1550,0.8232,0,0,90.0*
1,1,0.3582,0.2325,0.5775*
1,1,0.3582,0.2325,-0.5775*
1,1,0.3582,-0.2325,-0.5775*
1,1,0.3582,-0.2325,0.5775*
%
%ADD40ROUNDEDRECTD40*%
G04:AMPARAMS|DCode=41|XSize=1.4132mm|YSize=0.7932mm|CornerRadius=0.1754mm|HoleSize=0mm|Usage=FLASHONLY|Rotation=90.000|XOffset=0mm|YOffset=0mm|HoleType=Round|Shape=RoundedRectangle|*
%AMROUNDEDRECTD41*
21,1,1.4132,0.4425,0,0,90.0*
21,1,1.0625,0.7932,0,0,90.0*
1,1,0.3507,0.2213,0.5313*
1,1,0.3507,0.2213,-0.5313*
1,1,0.3507,-0.2213,-0.5313*
1,1,0.3507,-0.2213,0.5313*
%
%ADD41ROUNDEDRECTD41*%
%ADD42R,0.6532X1.7032*%
%ADD43C,2.1532*%
%ADD44R,2.1532X2.1532*%
%ADD45C,2.7032*%
%ADD46R,2.7032X2.7032*%
%ADD47R,1.3332X1.3332*%
%ADD48C,1.3332*%
%ADD49C,1.7112*%
%ADD50R,1.7112X1.7112*%
%ADD51R,1.7112X1.7112*%
%ADD52O,1.2032X2.0032*%
%ADD53O,1.2032X2.3032*%
%ADD54C,0.8532*%
%ADD55C,1.8532*%
G04:AMPARAMS|DCode=56|XSize=1.8532mm|YSize=1.8532mm|CornerRadius=0.5141mm|HoleSize=0mm|Usage=FLASHONLY|Rotation=0.000|XOffset=0mm|YOffset=0mm|HoleType=Round|Shape=RoundedRectangle|*
%AMROUNDEDRECTD56*
21,1,1.8532,0.8250,0,0,0.0*
21,1,0.8250,1.8532,0,0,0.0*
1,1,1.0282,0.4125,-0.4125*
1,1,1.0282,-0.4125,-0.4125*
1,1,1.0282,-0.4125,0.4125*
1,1,1.0282,0.4125,0.4125*
%
%ADD56ROUNDEDRECTD56*%
%ADD57C,0.2032*%
D30*
X800852Y191516D02*
D03*
X831352D02*
D03*
X782056Y393700D02*
D03*
X812556D02*
D03*
X488452Y527812D02*
D03*
X457952D02*
D03*
X345958Y530352D02*
D03*
X315458D02*
D03*
X266964Y543560D02*
D03*
X236464D02*
D03*
X66284Y421132D02*
D03*
X96784D02*
D03*
X98796Y343154D02*
D03*
X129296D02*
D03*
X86858Y289560D02*
D03*
X117358D02*
D03*
X188732Y214884D02*
D03*
X158232D02*
D03*
X287010Y166370D02*
D03*
X317510D02*
D03*
X393944Y203200D02*
D03*
X424444D02*
D03*
X502422Y292862D02*
D03*
X471922D02*
D03*
X442966Y623062D02*
D03*
X473466D02*
D03*
X442966Y574802D02*
D03*
X473466D02*
D03*
D31*
X748036Y189484D02*
D03*
X717036D02*
D03*
X243592Y477774D02*
D03*
X212592D02*
D03*
X317494Y228346D02*
D03*
X348494D02*
D03*
X569982Y250952D02*
D03*
X538982D02*
D03*
X591560Y193294D02*
D03*
X622560D02*
D03*
D32*
X538038Y524002D02*
D03*
X578038D02*
D03*
D33*
X111760Y558810D02*
D03*
Y528310D02*
D03*
X436118Y373136D02*
D03*
Y342636D02*
D03*
X551180Y118100D02*
D03*
Y148600D02*
D03*
X676402Y148092D02*
D03*
Y117592D02*
D03*
X560578Y217434D02*
D03*
Y186934D02*
D03*
X651256Y217180D02*
D03*
Y186680D02*
D03*
X861060Y344688D02*
D03*
Y314188D02*
D03*
D34*
X544576Y437902D02*
D03*
Y406902D02*
D03*
X639826Y429000D02*
D03*
Y460000D02*
D03*
X594360Y430016D02*
D03*
Y461016D02*
D03*
X755904Y100832D02*
D03*
Y131832D02*
D03*
X715264Y100832D02*
D03*
Y131832D02*
D03*
D35*
X571702Y82632D02*
D03*
X635702D02*
D03*
X579702D02*
D03*
X627702D02*
D03*
D36*
X606202D02*
D03*
X601202D02*
D03*
X611202D02*
D03*
X616202D02*
D03*
X621202D02*
D03*
X596202D02*
D03*
X591202D02*
D03*
X586202D02*
D03*
D37*
X517396Y600202D02*
D03*
D38*
X509696Y577202D02*
D03*
Y623202D02*
D03*
D39*
X569696Y600202D02*
D03*
D40*
X548386Y371162D02*
D03*
X561086D02*
D03*
X573786D02*
D03*
X586486D02*
D03*
X599186D02*
D03*
X611886D02*
D03*
X624586D02*
D03*
X637286D02*
D03*
Y316162D02*
D03*
X624586D02*
D03*
X611886D02*
D03*
X599186D02*
D03*
X586486D02*
D03*
X573786D02*
D03*
X561086D02*
D03*
X548386D02*
D03*
D41*
X597052Y142898D02*
D03*
X606552D02*
D03*
X616052D02*
D03*
Y167998D02*
D03*
X606552D02*
D03*
X597052D02*
D03*
D42*
X731052Y466134D02*
D03*
X724552D02*
D03*
X718052D02*
D03*
X711552D02*
D03*
X705052D02*
D03*
X698552D02*
D03*
X692052D02*
D03*
X685552D02*
D03*
X679052D02*
D03*
X672552D02*
D03*
Y408134D02*
D03*
X679052D02*
D03*
X685552D02*
D03*
X692052D02*
D03*
X698552D02*
D03*
X705052D02*
D03*
X711552D02*
D03*
X718052D02*
D03*
X724552D02*
D03*
X731052D02*
D03*
D43*
X707628Y314560D02*
D03*
X832628D02*
D03*
X707628Y264560D02*
D03*
D44*
X832628D02*
D03*
D45*
X640026Y574802D02*
D03*
D46*
X716026D02*
D03*
D47*
X400380Y261620D02*
D03*
X166040Y441960D02*
D03*
D48*
X400380Y287020D02*
D03*
Y312420D02*
D03*
Y337820D02*
D03*
Y363220D02*
D03*
Y388620D02*
D03*
Y414020D02*
D03*
Y439420D02*
D03*
X320980D02*
D03*
Y414020D02*
D03*
Y388620D02*
D03*
Y363220D02*
D03*
Y337820D02*
D03*
Y312420D02*
D03*
Y287020D02*
D03*
Y261620D02*
D03*
X245440Y441960D02*
D03*
Y416560D02*
D03*
Y391160D02*
D03*
Y365760D02*
D03*
Y340360D02*
D03*
Y314960D02*
D03*
Y289560D02*
D03*
Y264160D02*
D03*
X166040D02*
D03*
Y289560D02*
D03*
Y314960D02*
D03*
Y340360D02*
D03*
Y365760D02*
D03*
Y391160D02*
D03*
Y416560D02*
D03*
D49*
X487680Y474980D02*
D03*
X406400Y558800D02*
D03*
X292100Y599440D02*
D03*
X177800Y558800D02*
D03*
X93980Y474980D02*
D03*
X60960Y355600D02*
D03*
X91440Y233680D02*
D03*
X177800Y152400D02*
D03*
X292100Y111760D02*
D03*
X406400Y149860D02*
D03*
X485140Y236220D02*
D03*
X509016Y361950D02*
D03*
X797306Y439166D02*
D03*
D50*
X462280Y474980D02*
D03*
X381000Y558800D02*
D03*
X266700Y599440D02*
D03*
X152400Y558800D02*
D03*
X68580Y474980D02*
D03*
X35560Y355600D02*
D03*
X66040Y233680D02*
D03*
X152400Y152400D02*
D03*
X266700Y111760D02*
D03*
X381000Y149860D02*
D03*
X459740Y236220D02*
D03*
X483616Y361950D02*
D03*
D51*
X797306Y464566D02*
D03*
D52*
X560502Y35082D02*
D03*
X646902D02*
D03*
D53*
X560502Y76882D02*
D03*
X646902D02*
D03*
D54*
X632602Y71882D02*
D03*
X574802D02*
D03*
D55*
X443484Y110758D02*
D03*
X468884D02*
D03*
X494284D02*
D03*
D56*
X519684D02*
D03*
D57*
X381000Y685800D02*
D03*
X344424Y43434D02*
D03*
X939800Y355600D02*
D03*
X25400Y279400D02*
D03*
M02*
