M48
;Layer_Color=9474304
;FILE_FORMAT=4:4
METRIC,LZ
;TYPE=PLATED
T01F00S00C0.2540
T02F00S00C0.4064
T04F00S00C0.7112
T05F00S00C0.7800
T06F00S00C0.9000
T07F00S00C1.0000
T08F00S00C1.1000
T09F00S00C1.3000
T10F00S00C3.2000
;TYPE=NON_PLATED
T11F00S00C0.6500
%
T01
X00606552Y00070612
X00613664Y00127
T02
X001778Y000508
X002286
X002794
X00381
X004318
X007366
Y001524
X00762Y002032
X008128
X007874Y00254
X007366
X006858
Y003556
X007874
X008382
X008128Y003048
X00762
Y004064
X009144
Y003048
Y002032
X006604
X00635Y00254
X006604Y003048
X00635Y003556
X006096Y004064
X00508
X004572
X004826Y004572
X005334
Y003556
X004318
X00381
X003302
X003048Y004064
X00381Y004572
X004318
X004572Y003048
X004826Y00254
X004318
X00381
X002794
X003302Y001524
X003556Y001016
X004064
X004572
X004826Y001524
X005334
X005842
X00635
X006604Y001016
X005588
X004318Y001524
X003048Y001016
X002032
X001524
X001016
X00127Y001524
X000762
X001016Y002032
X000508
X000762Y00254
X00127
X001778
X002286
X00254Y003048
X002032
X001524
X001016
X000508
Y004064
X000254Y004572
X001778
X002032Y004064
X00254
X001524
X001778Y003556
X002286Y001524
Y005588
X002032Y006096
X001524
X001016
X00127Y005588
X000762
X001016Y00508
X000508
X001778Y006604
X002286
X002794
X003302
X003556Y006096
X004064
X004572
X00508
X005334Y006604
X005842
X00635
X006604Y006096
X006096
Y00508
X005588
X00508
X004572
X004318Y005588
Y006604
X004826
X003048Y006096
X007112
X007366Y006604
X006858
Y005588
X007366
X008382
X00889
X009144Y00508
X008636
X008128
T04
X00784352Y001143
X0070485Y00388112
X00665226Y00361696
X00632831Y00337544
X00610362Y003429
X0060579Y00216916
X0061849Y0047752
X00516128Y00432054
X00272288Y00464312
X00285242Y00373126
X00316484Y0020066
X00442722Y00550926
X00767842Y00552196
X0079502Y00551688
X00819912Y00552958
X007239Y00503936
X0073533Y00489204
X00710946Y0049022
T05
X0032098Y0026162
Y0028702
Y0031242
Y0033782
Y0036322
Y0038862
Y0041402
Y0043942
X0040038
Y0041402
Y0038862
Y0036322
Y0033782
Y0031242
Y0028702
Y0026162
X0024544Y0026416
Y0028956
Y0031496
Y0034036
Y0036576
Y0039116
Y0041656
Y0044196
X0016604
Y0041656
Y0039116
Y0036576
Y0034036
Y0031496
Y0028956
Y0026416
T06
X00640026Y00574802
X00716026
T07
X00797306Y00439166
Y00464566
X0048768Y0047498
X0046228
X00483616Y0036195
X00509016
X0048514Y0023622
X0045974
X004064Y0014986
X00381
X002921Y0011176
X002667
X001778Y001524
X001524
X0009144Y0023368
X0006604
X0006096Y003556
X0003556
X0006858Y0047498
X0009398
X001524Y005588
X001778
X002667Y0059944
X002921
X00381Y005588
X004064
T08
X00443484Y00110758
X00468884
X00494284
X00519684
T09
X00707628Y0026456
Y0031456
X00832628
Y0026456
T10
X00344424Y00043434
X009398Y003556
X000254Y002794
X00381Y006858
T11
X00574802Y00071882
X00632602
M30
