G04*
G04 #@! TF.GenerationSoftware,Altium Limited,Altium Designer,25.2.1 (25)*
G04*
G04 Layer_Physical_Order=2*
G04 Layer_Color=16711680*
%FSLAX44Y44*%
%MOMM*%
G71*
G04*
G04 #@! TF.SameCoordinates,6E252725-9D57-42C9-A0AC-82CA327B04A9*
G04*
G04*
G04 #@! TF.FilePolarity,Positive*
G04*
G01*
G75*
%ADD58C,0.6350*%
%ADD59C,0.3810*%
%ADD60C,1.9500*%
%ADD61R,1.9500X1.9500*%
%ADD62C,2.5000*%
%ADD63R,2.5000X2.5000*%
%ADD64R,1.1300X1.1300*%
%ADD65C,1.1300*%
%ADD66C,1.5080*%
%ADD67R,1.5080X1.5080*%
%ADD68R,1.5080X1.5080*%
%ADD69O,1.0000X1.8000*%
%ADD70O,1.0000X2.1000*%
%ADD71C,0.6500*%
%ADD72C,1.6500*%
G04:AMPARAMS|DCode=73|XSize=1.65mm|YSize=1.65mm|CornerRadius=0.4125mm|HoleSize=0mm|Usage=FLASHONLY|Rotation=0.000|XOffset=0mm|YOffset=0mm|HoleType=Round|Shape=RoundedRectangle|*
%AMROUNDEDRECTD73*
21,1,1.6500,0.8250,0,0,0.0*
21,1,0.8250,1.6500,0,0,0.0*
1,1,0.8250,0.4125,-0.4125*
1,1,0.8250,-0.4125,-0.4125*
1,1,0.8250,-0.4125,0.4125*
1,1,0.8250,0.4125,0.4125*
%
%ADD73ROUNDEDRECTD73*%
%ADD74C,0.7620*%
%ADD75C,1.2700*%
%ADD76C,0.5080*%
G36*
X628000Y706688D02*
X646349Y705244D01*
X664598Y702841D01*
X682695Y699487D01*
X700593Y695190D01*
X718241Y689962D01*
X735591Y683818D01*
X752596Y676775D01*
X769209Y668851D01*
X785385Y660068D01*
X801078Y650451D01*
X801094Y650440D01*
X800044Y648080D01*
X799036Y648322D01*
X794512Y648678D01*
Y648656D01*
X273812D01*
Y648678D01*
X269288Y648322D01*
X264876Y647263D01*
X260683Y645526D01*
X256814Y643155D01*
X253364Y640208D01*
X250417Y636758D01*
X248046Y632889D01*
X246309Y628696D01*
X245250Y624284D01*
X244894Y619760D01*
X244916D01*
Y480822D01*
X244894D01*
X245250Y476298D01*
X246126Y472648D01*
X246126Y472648D01*
X246220Y472297D01*
X246221Y472292D01*
X246357Y472088D01*
X246542Y471643D01*
X245788Y469920D01*
X245089Y469103D01*
X213360D01*
Y469104D01*
X208637Y468732D01*
X204030Y467626D01*
X199653Y465813D01*
X195614Y463338D01*
X192011Y460261D01*
X188934Y456658D01*
X186459Y452619D01*
X184646Y448242D01*
X183540Y443635D01*
X183168Y438912D01*
X183169D01*
Y225552D01*
X183168D01*
X183540Y220829D01*
X184646Y216222D01*
X186459Y211845D01*
X188934Y207806D01*
X192011Y204203D01*
X195614Y201126D01*
X199653Y198651D01*
X204030Y196838D01*
X208637Y195732D01*
X210900Y195554D01*
X213337Y195362D01*
X213337Y195362D01*
X213337Y195362D01*
X213341Y195361D01*
X213360Y195360D01*
X213384Y195361D01*
X307065Y195823D01*
X307135Y195791D01*
X308399Y195748D01*
X308890Y195698D01*
X309341Y195627D01*
X309732Y195539D01*
X310061Y195440D01*
X310329Y195333D01*
X310537Y195226D01*
X310689Y195124D01*
X310882Y194954D01*
X311144Y194865D01*
X311649Y194359D01*
X313445Y193323D01*
X315447Y192786D01*
X317521D01*
X319523Y193323D01*
X321319Y194359D01*
X321849Y194890D01*
X322114Y194981D01*
X322306Y195152D01*
X322458Y195255D01*
X322665Y195364D01*
X322932Y195472D01*
X323261Y195573D01*
X323652Y195662D01*
X324082Y195732D01*
X325193Y195824D01*
X325824Y195836D01*
X325900Y195869D01*
X494940D01*
X498317Y195536D01*
X502195Y194360D01*
X505770Y192449D01*
X508902Y189878D01*
X511473Y186746D01*
X513384Y183171D01*
X514560Y179293D01*
X514936Y175477D01*
X514893Y175260D01*
Y125471D01*
X514860Y125398D01*
X514830Y124428D01*
X514747Y123595D01*
X514613Y122850D01*
X514433Y122193D01*
X514211Y121622D01*
X513954Y121131D01*
X513662Y120713D01*
X513337Y120357D01*
X512970Y120053D01*
X512462Y119737D01*
X512348Y119578D01*
X512168Y119503D01*
X512115Y119376D01*
X511486Y118956D01*
X510238Y117087D01*
X509799Y114883D01*
Y106633D01*
X510238Y104429D01*
X511486Y102560D01*
X513355Y101312D01*
X515559Y100873D01*
X523809D01*
X526013Y101312D01*
X527882Y102560D01*
X529130Y104429D01*
X529569Y106633D01*
Y114883D01*
X529130Y117087D01*
X527882Y118956D01*
X527253Y119376D01*
X527200Y119503D01*
X527020Y119578D01*
X526906Y119737D01*
X526398Y120053D01*
X526031Y120357D01*
X525706Y120713D01*
X525414Y121131D01*
X525157Y121621D01*
X524935Y122193D01*
X524755Y122850D01*
X524621Y123595D01*
X524538Y124428D01*
X524508Y125398D01*
X524475Y125471D01*
Y175260D01*
X524476D01*
X524104Y179983D01*
X522998Y184590D01*
X521185Y188967D01*
X518710Y193006D01*
X518235Y193562D01*
X519299Y195869D01*
X589534D01*
Y195860D01*
X593642Y196264D01*
X597592Y197462D01*
X601232Y199408D01*
X604423Y202027D01*
X607042Y205218D01*
X607844Y206718D01*
X608095Y206922D01*
X608442Y207561D01*
X609310Y209074D01*
X609515Y209011D01*
X609922Y208858D01*
X610932Y208383D01*
X611484Y208079D01*
X611567Y208070D01*
X773778Y114851D01*
X773822Y114788D01*
X774894Y114116D01*
X775293Y113826D01*
X775647Y113538D01*
X775941Y113266D01*
X776176Y113014D01*
X776354Y112788D01*
X776479Y112590D01*
X776560Y112425D01*
X776641Y112182D01*
X776824Y111971D01*
X777015Y111261D01*
X778051Y109465D01*
X779517Y107999D01*
X781313Y106963D01*
X783315Y106426D01*
X785389D01*
X787391Y106963D01*
X789187Y107999D01*
X790653Y109465D01*
X791689Y111261D01*
X792226Y113263D01*
Y115337D01*
X791689Y117339D01*
X790653Y119135D01*
X790122Y119665D01*
X790031Y119930D01*
X789860Y120122D01*
X789757Y120274D01*
X789648Y120481D01*
X789540Y120748D01*
X789439Y121077D01*
X789350Y121468D01*
X789280Y121898D01*
X789188Y123009D01*
X789176Y123640D01*
X789143Y123716D01*
Y144526D01*
X789108Y144702D01*
X789439Y148061D01*
X790470Y151461D01*
X792145Y154594D01*
X794398Y157340D01*
X797144Y159593D01*
X800277Y161268D01*
X803677Y162299D01*
X807036Y162630D01*
X807212Y162595D01*
X840740D01*
Y162594D01*
X845463Y162966D01*
X850070Y164072D01*
X854447Y165885D01*
X858486Y168360D01*
X862089Y171437D01*
X865166Y175040D01*
X867641Y179079D01*
X869454Y183456D01*
X870560Y188063D01*
X870932Y192786D01*
X870931D01*
Y439166D01*
X870932D01*
X870560Y443889D01*
X869454Y448496D01*
X867641Y452873D01*
X865166Y456912D01*
X862089Y460515D01*
X858486Y463592D01*
X854447Y466067D01*
X850070Y467880D01*
X845463Y468986D01*
X840740Y469358D01*
Y469357D01*
X811283D01*
X811209Y469390D01*
X810053Y469420D01*
X809088Y469506D01*
X808278Y469641D01*
X807630Y469815D01*
X807150Y470011D01*
X806833Y470205D01*
X806652Y470373D01*
X806556Y470516D01*
X806499Y470679D01*
X806456Y471089D01*
X806370Y471247D01*
Y473630D01*
X788242D01*
Y455502D01*
X806370D01*
Y457885D01*
X806456Y458043D01*
X806499Y458453D01*
X806556Y458615D01*
X806652Y458759D01*
X806833Y458927D01*
X807150Y459121D01*
X807630Y459317D01*
X808278Y459491D01*
X809088Y459626D01*
X810053Y459712D01*
X811209Y459742D01*
X811283Y459775D01*
X840740D01*
X840957Y459818D01*
X844773Y459442D01*
X848651Y458266D01*
X852226Y456355D01*
X855358Y453784D01*
X857929Y450652D01*
X859840Y447077D01*
X861016Y443199D01*
X861392Y439383D01*
X861349Y439166D01*
Y192786D01*
X861392Y192569D01*
X861016Y188753D01*
X859840Y184875D01*
X857929Y181300D01*
X855358Y178168D01*
X852226Y175597D01*
X848651Y173686D01*
X844773Y172510D01*
X840957Y172134D01*
X840740Y172177D01*
X807212D01*
X807155Y172166D01*
X802887Y171830D01*
X798670Y170817D01*
X794662Y169157D01*
X790963Y166891D01*
X787665Y164073D01*
X784847Y160775D01*
X782581Y157076D01*
X780921Y153069D01*
X779908Y148850D01*
X779572Y144583D01*
X779561Y144526D01*
Y131102D01*
X777175Y130229D01*
X605375Y333754D01*
X607030Y335732D01*
X607323Y335563D01*
X609325Y335026D01*
X611080D01*
X611306Y334957D01*
X611948Y335018D01*
X612507Y335036D01*
X613032Y335018D01*
X613523Y334965D01*
X613981Y334879D01*
X614408Y334761D01*
X614809Y334613D01*
X615185Y334434D01*
X615540Y334223D01*
X615938Y333935D01*
X616068Y333904D01*
X629203Y323474D01*
X629533Y323304D01*
X630086Y322879D01*
X631847Y322150D01*
X633737Y321901D01*
X635319Y322109D01*
X635536Y322121D01*
X640510Y323392D01*
X640524Y323337D01*
X640588Y323363D01*
X643112Y323402D01*
X697253D01*
X698248Y320862D01*
X697122Y318912D01*
X696354Y316044D01*
Y313076D01*
X697122Y310208D01*
X698607Y307638D01*
X700706Y305539D01*
X703276Y304054D01*
X706144Y303286D01*
X709112D01*
X711980Y304054D01*
X714550Y305539D01*
X716649Y307638D01*
X718134Y310208D01*
X718902Y313076D01*
Y316044D01*
X718134Y318912D01*
X716649Y321482D01*
X717797Y323927D01*
X732072Y323477D01*
X734568Y323370D01*
Y323370D01*
X738576Y323765D01*
X742431Y324934D01*
X745983Y326833D01*
X749096Y329388D01*
X751651Y332501D01*
X753550Y336053D01*
X754719Y339908D01*
X755114Y343916D01*
X755082D01*
Y478536D01*
X755104D01*
X754748Y483060D01*
X753689Y487472D01*
X751952Y491665D01*
X749581Y495534D01*
X746634Y498984D01*
X743184Y501931D01*
X739315Y504302D01*
X735122Y506039D01*
X734421Y506207D01*
X734265Y506340D01*
X733750Y506506D01*
X733293Y506685D01*
X732845Y506893D01*
X732404Y507132D01*
X731970Y507401D01*
X731543Y507701D01*
X731138Y508021D01*
X730282Y508816D01*
X729866Y509264D01*
X729573Y509399D01*
X728735Y510237D01*
X726939Y511273D01*
X724937Y511810D01*
X722863D01*
X720961Y511300D01*
X720746Y511428D01*
X719339Y513328D01*
X720825Y515139D01*
X724151Y517868D01*
X727946Y519897D01*
X732064Y521146D01*
X736192Y521553D01*
X736346Y521522D01*
X856996D01*
X857150Y521553D01*
X861278Y521146D01*
X865396Y519897D01*
X869191Y517868D01*
X872517Y515139D01*
X875247Y511813D01*
X877275Y508018D01*
X878524Y503900D01*
X878931Y499772D01*
X878900Y499618D01*
Y173736D01*
X878931Y173582D01*
X878524Y169454D01*
X877275Y165336D01*
X875247Y161541D01*
X872517Y158215D01*
X869191Y155485D01*
X865396Y153457D01*
X861278Y152208D01*
X857150Y151802D01*
X856996Y151832D01*
X827024D01*
Y151854D01*
X822500Y151498D01*
X818088Y150439D01*
X813895Y148702D01*
X810026Y146331D01*
X806576Y143384D01*
X803629Y139934D01*
X801258Y136065D01*
X799521Y131872D01*
X798462Y127460D01*
X798106Y122936D01*
X798128D01*
Y105410D01*
X798158Y105256D01*
X797752Y101128D01*
X796503Y97010D01*
X794474Y93215D01*
X791745Y89889D01*
X788419Y87160D01*
X784624Y85131D01*
X780506Y83882D01*
X776378Y83476D01*
X776224Y83506D01*
X677418D01*
Y83516D01*
X674306Y83209D01*
X671313Y82302D01*
X668556Y80827D01*
X666138Y78844D01*
X664155Y76426D01*
X662680Y73668D01*
X661773Y70676D01*
X661466Y67564D01*
X661466Y67564D01*
X661097Y65177D01*
X660388Y63465D01*
X659085Y61767D01*
X657387Y60464D01*
X655410Y59645D01*
X653319Y59370D01*
X653288Y59376D01*
X519684D01*
X519530Y59345D01*
X515402Y59752D01*
X511284Y61001D01*
X507489Y63029D01*
X504163Y65759D01*
X501433Y69085D01*
X499405Y72880D01*
X498156Y76998D01*
X497749Y81126D01*
X497780Y81280D01*
Y97570D01*
X497836Y97685D01*
X497869Y98256D01*
X497955Y98752D01*
X498103Y99275D01*
X498318Y99828D01*
X498606Y100409D01*
X498969Y101018D01*
X499397Y101633D01*
X500548Y103005D01*
X501240Y103714D01*
X501357Y104009D01*
X502105Y104757D01*
X503392Y106985D01*
X504058Y109471D01*
Y112045D01*
X503392Y114531D01*
X502105Y116759D01*
X500285Y118579D01*
X498057Y119866D01*
X495571Y120532D01*
X492997D01*
X490511Y119866D01*
X488283Y118579D01*
X486463Y116759D01*
X485176Y114531D01*
X484510Y112045D01*
Y109471D01*
X485176Y106985D01*
X486463Y104757D01*
X487211Y104009D01*
X487328Y103714D01*
X488035Y102990D01*
X488637Y102310D01*
X489157Y101652D01*
X489599Y101017D01*
X489962Y100409D01*
X490249Y99827D01*
X490465Y99275D01*
X490613Y98752D01*
X490699Y98256D01*
X490732Y97685D01*
X490788Y97570D01*
Y81280D01*
X490766D01*
X491122Y76756D01*
X492181Y72344D01*
X493918Y68151D01*
X496289Y64282D01*
X499236Y60832D01*
X502686Y57885D01*
X506555Y55514D01*
X505924Y53026D01*
X494284D01*
X494130Y52996D01*
X490002Y53402D01*
X485884Y54651D01*
X482089Y56680D01*
X478763Y59409D01*
X476034Y62735D01*
X474005Y66530D01*
X472756Y70648D01*
X472350Y74776D01*
X472380Y74930D01*
Y97570D01*
X472436Y97685D01*
X472469Y98256D01*
X472555Y98752D01*
X472703Y99275D01*
X472919Y99828D01*
X473206Y100409D01*
X473569Y101018D01*
X473997Y101633D01*
X475148Y103005D01*
X475840Y103714D01*
X475957Y104009D01*
X476705Y104757D01*
X477992Y106985D01*
X478658Y109471D01*
Y112045D01*
X477992Y114531D01*
X476705Y116759D01*
X474885Y118579D01*
X472657Y119866D01*
X470171Y120532D01*
X467597D01*
X465111Y119866D01*
X462883Y118579D01*
X461063Y116759D01*
X459776Y114531D01*
X459110Y112045D01*
Y109471D01*
X459776Y106985D01*
X461063Y104757D01*
X461810Y104009D01*
X461928Y103714D01*
X462635Y102990D01*
X463237Y102310D01*
X463757Y101652D01*
X464199Y101017D01*
X464562Y100409D01*
X464850Y99827D01*
X465065Y99275D01*
X465213Y98752D01*
X465299Y98256D01*
X465332Y97685D01*
X465388Y97570D01*
Y74930D01*
X465366D01*
X465722Y70406D01*
X466781Y65994D01*
X468518Y61801D01*
X470889Y57932D01*
X473836Y54482D01*
X477286Y51535D01*
X481155Y49164D01*
X485348Y47427D01*
X489760Y46368D01*
X494284Y46012D01*
Y46034D01*
X551530D01*
X552807Y43525D01*
X551919Y41382D01*
X551616Y39082D01*
Y36352D01*
X560502D01*
X569388D01*
Y39082D01*
X569085Y41382D01*
X568198Y43525D01*
X569474Y46034D01*
X637930D01*
X639207Y43525D01*
X638319Y41382D01*
X638016Y39082D01*
Y36352D01*
X646902D01*
X655788D01*
Y39082D01*
X655485Y41382D01*
X654744Y43171D01*
X655924Y45517D01*
X657860Y46014D01*
Y46014D01*
X661370Y46360D01*
X664746Y47384D01*
X667857Y49047D01*
X670583Y51285D01*
X672821Y54011D01*
X674484Y57122D01*
X675508Y60498D01*
X675854Y64008D01*
X675854Y64008D01*
X676408Y66318D01*
X677311Y67670D01*
X678992Y68793D01*
X680874Y69168D01*
X680974Y69148D01*
X787400D01*
Y69126D01*
X791924Y69482D01*
X796336Y70541D01*
X800529Y72278D01*
X804398Y74649D01*
X807848Y77596D01*
X810795Y81046D01*
X813166Y84915D01*
X814903Y89108D01*
X815962Y93520D01*
X816318Y98044D01*
X816296D01*
Y115824D01*
X816271Y115949D01*
X816646Y119758D01*
X817794Y123540D01*
X819657Y127026D01*
X822165Y130082D01*
X825220Y132589D01*
X828706Y134452D01*
X832488Y135600D01*
X836297Y135975D01*
X836422Y135950D01*
X871220D01*
Y135905D01*
X875776Y136353D01*
X880157Y137682D01*
X883580Y139512D01*
X885261Y137530D01*
X882821Y134350D01*
X870867Y120354D01*
X858197Y107003D01*
X844846Y94333D01*
X830850Y82379D01*
X816247Y71174D01*
X801078Y60749D01*
X785385Y51132D01*
X769209Y42349D01*
X752596Y34425D01*
X735591Y27382D01*
X718241Y21237D01*
X700593Y16010D01*
X682695Y11713D01*
X664598Y8359D01*
X646349Y5957D01*
X628000Y4512D01*
X609921Y4039D01*
X609600Y4103D01*
X330200D01*
X329879Y4039D01*
X311800Y4512D01*
X293451Y5957D01*
X275202Y8359D01*
X257105Y11713D01*
X239207Y16010D01*
X221559Y21237D01*
X204209Y27382D01*
X187204Y34425D01*
X170591Y42349D01*
X154415Y51132D01*
X138722Y60749D01*
X123553Y71174D01*
X108950Y82379D01*
X94954Y94333D01*
X81603Y107003D01*
X68933Y120354D01*
X56979Y134350D01*
X45774Y148953D01*
X35349Y164121D01*
X25732Y179815D01*
X16949Y195991D01*
X9025Y212604D01*
X1982Y229609D01*
X-4162Y246959D01*
X-9390Y264607D01*
X-13687Y282505D01*
X-17041Y300602D01*
X-19444Y318851D01*
X-20888Y337200D01*
X-21370Y355600D01*
X-20888Y374000D01*
X-19444Y392349D01*
X-17041Y410598D01*
X-13687Y428695D01*
X-9390Y446593D01*
X-4162Y464241D01*
X1982Y481591D01*
X9025Y498596D01*
X16949Y515209D01*
X25732Y531385D01*
X35349Y547079D01*
X45774Y562247D01*
X56979Y576850D01*
X68933Y590846D01*
X81603Y604197D01*
X94954Y616867D01*
X108950Y628821D01*
X123553Y640026D01*
X138722Y650451D01*
X154415Y660068D01*
X170591Y668851D01*
X187204Y676775D01*
X204209Y683818D01*
X221559Y689962D01*
X239207Y695190D01*
X257105Y699487D01*
X275202Y702841D01*
X293451Y705244D01*
X311800Y706688D01*
X329879Y707161D01*
X330200Y707097D01*
X364573D01*
X365482Y704557D01*
X363703Y703097D01*
X360661Y699390D01*
X358400Y695161D01*
X357008Y690572D01*
X356538Y685800D01*
X357008Y681028D01*
X358400Y676439D01*
X360661Y672210D01*
X363703Y668503D01*
X367410Y665461D01*
X371639Y663200D01*
X376228Y661808D01*
X381000Y661338D01*
X385772Y661808D01*
X390361Y663200D01*
X394590Y665461D01*
X398297Y668503D01*
X401339Y672210D01*
X403600Y676439D01*
X404992Y681028D01*
X405462Y685800D01*
X404992Y690572D01*
X403600Y695161D01*
X401339Y699390D01*
X398297Y703097D01*
X396518Y704557D01*
X397427Y707097D01*
X609600D01*
X609921Y707161D01*
X628000Y706688D01*
D02*
G37*
G36*
X821842Y562260D02*
X821919Y561702D01*
X822046Y561152D01*
X822223Y560608D01*
X822452Y560071D01*
X822731Y559541D01*
X823062Y559018D01*
X823443Y558503D01*
X823874Y557994D01*
X824357Y557493D01*
X815467D01*
X815950Y557994D01*
X816381Y558503D01*
X816762Y559018D01*
X817093Y559541D01*
X817372Y560071D01*
X817601Y560608D01*
X817778Y561152D01*
X817905Y561702D01*
X817982Y562260D01*
X818007Y562826D01*
X821817D01*
X821842Y562260D01*
D02*
G37*
G36*
X769772Y561498D02*
X769849Y560940D01*
X769976Y560390D01*
X770153Y559846D01*
X770382Y559309D01*
X770661Y558779D01*
X770992Y558256D01*
X771373Y557741D01*
X771804Y557232D01*
X772287Y556731D01*
X763397D01*
X763880Y557232D01*
X764311Y557741D01*
X764692Y558256D01*
X765023Y558779D01*
X765302Y559309D01*
X765531Y559846D01*
X765708Y560390D01*
X765835Y560940D01*
X765912Y561498D01*
X765937Y562063D01*
X769747D01*
X769772Y561498D01*
D02*
G37*
G36*
X796950Y560990D02*
X797027Y560432D01*
X797154Y559882D01*
X797331Y559338D01*
X797560Y558801D01*
X797839Y558271D01*
X798170Y557748D01*
X798551Y557233D01*
X798982Y556724D01*
X799465Y556223D01*
X790575D01*
X791058Y556724D01*
X791489Y557233D01*
X791870Y557748D01*
X792201Y558271D01*
X792480Y558801D01*
X792709Y559338D01*
X792886Y559882D01*
X793013Y560432D01*
X793090Y560990D01*
X793115Y561555D01*
X796925D01*
X796950Y560990D01*
D02*
G37*
G36*
X798794Y641288D02*
X802912Y640039D01*
X806707Y638010D01*
X810033Y635281D01*
X812763Y631955D01*
X814791Y628160D01*
X816040Y624042D01*
X816447Y619914D01*
X816416Y619760D01*
Y563021D01*
X816359Y562900D01*
X816337Y562410D01*
X816281Y562000D01*
X816188Y561594D01*
X816055Y561188D01*
X815881Y560780D01*
X815664Y560368D01*
X815400Y559950D01*
X815088Y559528D01*
X814725Y559101D01*
X814278Y558637D01*
X814165Y558346D01*
X813611Y557793D01*
X812575Y555997D01*
X812038Y553995D01*
Y551921D01*
X812575Y549919D01*
X813611Y548123D01*
X815077Y546657D01*
X816873Y545621D01*
X818875Y545084D01*
X820949D01*
X822951Y545621D01*
X824747Y546657D01*
X826213Y548123D01*
X827249Y549919D01*
X827786Y551921D01*
Y553995D01*
X827249Y555997D01*
X826213Y557793D01*
X825659Y558346D01*
X825546Y558637D01*
X825099Y559101D01*
X824736Y559528D01*
X824424Y559950D01*
X824161Y560368D01*
X823943Y560780D01*
X823769Y561188D01*
X823636Y561594D01*
X823543Y562000D01*
X823487Y562410D01*
X823465Y562900D01*
X823408Y563021D01*
Y619760D01*
X823430D01*
X823074Y624284D01*
X822015Y628696D01*
X820278Y632889D01*
X819304Y634479D01*
X821224Y636207D01*
X830850Y628821D01*
X844846Y616867D01*
X858197Y604197D01*
X870867Y590846D01*
X882821Y576850D01*
X894026Y562247D01*
X904451Y547079D01*
X914068Y531385D01*
X922851Y515209D01*
X930775Y498596D01*
X937818Y481591D01*
X943962Y464241D01*
X949190Y446593D01*
X953487Y428695D01*
X956841Y410598D01*
X959243Y392349D01*
X960688Y374000D01*
X960727Y372477D01*
X958211Y371539D01*
X957097Y372897D01*
X953390Y375939D01*
X949161Y378200D01*
X944572Y379592D01*
X939800Y380062D01*
X935028Y379592D01*
X930439Y378200D01*
X926210Y375939D01*
X922503Y372897D01*
X919461Y369190D01*
X917200Y364961D01*
X915808Y360372D01*
X915338Y355600D01*
X915808Y350828D01*
X917200Y346239D01*
X919461Y342010D01*
X922503Y338303D01*
X926210Y335261D01*
X930439Y333000D01*
X935028Y331608D01*
X939800Y331138D01*
X944572Y331608D01*
X949161Y333000D01*
X953390Y335261D01*
X957097Y338303D01*
X958211Y339660D01*
X960727Y338723D01*
X960688Y337200D01*
X959243Y318851D01*
X956841Y300602D01*
X953487Y282505D01*
X949190Y264607D01*
X943962Y246959D01*
X937818Y229609D01*
X930775Y212604D01*
X922851Y195991D01*
X914068Y179815D01*
X904451Y164121D01*
X895832Y151581D01*
X893516Y152696D01*
X894125Y154702D01*
X894573Y159258D01*
X894528D01*
Y509524D01*
X894550D01*
X894194Y514048D01*
X893135Y518460D01*
X891398Y522653D01*
X889027Y526522D01*
X886080Y529972D01*
X882630Y532919D01*
X878761Y535290D01*
X874568Y537027D01*
X870156Y538086D01*
X865632Y538442D01*
Y538420D01*
X727456D01*
Y538442D01*
X722932Y538086D01*
X718520Y537027D01*
X714327Y535290D01*
X710458Y532919D01*
X707008Y529972D01*
X704061Y526522D01*
X701690Y522653D01*
X699953Y518460D01*
X698894Y514048D01*
X698538Y509524D01*
X698560D01*
Y495093D01*
X698521Y495054D01*
X698499Y495001D01*
X698484Y494964D01*
X698079Y493672D01*
X698078Y493668D01*
X697957Y492748D01*
X697624Y490220D01*
X697957Y487692D01*
X698078Y486772D01*
X698079Y486768D01*
X698484Y485476D01*
X698499Y485439D01*
X698521Y485386D01*
X698560Y485347D01*
Y396392D01*
X698503Y396272D01*
X698456Y395282D01*
X698406Y394839D01*
X698223Y393793D01*
X698107Y393295D01*
X697575Y391517D01*
X697354Y390906D01*
X697355Y390900D01*
X697350Y390895D01*
X697366Y390604D01*
X696976Y389149D01*
Y387075D01*
X697513Y385073D01*
X698549Y383277D01*
X700015Y381811D01*
X701811Y380775D01*
X703813Y380238D01*
X705887D01*
X707889Y380775D01*
X709685Y381811D01*
X711151Y383277D01*
X712187Y385073D01*
X712724Y387075D01*
Y389149D01*
X712187Y391151D01*
X711151Y392947D01*
X709685Y394413D01*
X707889Y395449D01*
X707601Y395527D01*
X707443Y395678D01*
X706980Y395858D01*
X706661Y396024D01*
X706404Y396202D01*
X706198Y396389D01*
X706031Y396592D01*
X705893Y396819D01*
X705780Y397085D01*
X705691Y397400D01*
X705633Y397775D01*
X705609Y398288D01*
X705552Y398408D01*
Y481309D01*
X707825Y482828D01*
X708092Y482833D01*
X709909Y482346D01*
X711983D01*
X713985Y482883D01*
X715781Y483919D01*
X717247Y485385D01*
X718283Y487181D01*
X718820Y489183D01*
Y491257D01*
X718283Y493259D01*
X717247Y495055D01*
X715781Y496521D01*
X715702Y496566D01*
X715668Y496647D01*
X715541Y498445D01*
X716334Y498698D01*
X717327Y498795D01*
X718012Y498688D01*
X719065Y497635D01*
X720861Y496599D01*
X722863Y496062D01*
X724937D01*
X726939Y496599D01*
X728735Y497635D01*
X729032Y497933D01*
X729275Y498012D01*
X729763Y498431D01*
X730190Y498744D01*
X730532Y498952D01*
X730581Y498956D01*
X730605Y498950D01*
X731140Y498484D01*
X731350Y496248D01*
X731332Y496192D01*
X731164Y495891D01*
X730495Y495505D01*
X729029Y494039D01*
X727993Y492243D01*
X727456Y490241D01*
Y488167D01*
X727993Y486165D01*
X729029Y484369D01*
X730495Y482903D01*
X732291Y481867D01*
X734293Y481330D01*
X736367D01*
X738457Y479812D01*
X738692Y479211D01*
Y359918D01*
X738723Y359764D01*
X738316Y355636D01*
X737067Y351518D01*
X735039Y347723D01*
X732309Y344397D01*
X728983Y341668D01*
X725188Y339639D01*
X721070Y338390D01*
X719262Y338212D01*
X716788Y338053D01*
X716778Y338057D01*
X716777Y338014D01*
X643013Y340675D01*
X642894Y340736D01*
X642405Y340776D01*
X641998Y340847D01*
X641596Y340955D01*
X641195Y341102D01*
X640793Y341291D01*
X640389Y341523D01*
X639981Y341801D01*
X639571Y342128D01*
X639157Y342506D01*
X638709Y342969D01*
X638413Y343098D01*
X637666Y343845D01*
X635870Y344882D01*
X633868Y345418D01*
X631795D01*
X629792Y344882D01*
X627996Y343845D01*
X626530Y342379D01*
X625494Y340583D01*
X625054Y338941D01*
X623910Y338255D01*
X622417Y337791D01*
X620416Y339380D01*
X620357Y339500D01*
X619987Y339822D01*
X619701Y340121D01*
X619441Y340446D01*
X619206Y340802D01*
X618994Y341193D01*
X618807Y341619D01*
X618644Y342085D01*
X618507Y342592D01*
X618398Y343142D01*
X618312Y343780D01*
X618236Y343912D01*
Y343937D01*
X617699Y345939D01*
X616663Y347735D01*
X615197Y349201D01*
X613401Y350237D01*
X611399Y350774D01*
X609325D01*
X607323Y350237D01*
X605527Y349201D01*
X604061Y347735D01*
X603025Y345939D01*
X602488Y343937D01*
Y341863D01*
X602783Y340763D01*
X600476Y339558D01*
X525880Y427929D01*
X525859Y428003D01*
X525790Y428092D01*
X525668Y428352D01*
X525629Y428502D01*
X525962Y430700D01*
X526084Y430936D01*
X526319Y431216D01*
X526549Y431402D01*
X526622Y431436D01*
X526678Y431498D01*
X611805Y469308D01*
X611882Y469307D01*
X613057Y469776D01*
X613527Y469927D01*
X613968Y470043D01*
X614361Y470120D01*
X614703Y470161D01*
X614991Y470171D01*
X615225Y470155D01*
X615405Y470123D01*
X615650Y470045D01*
X615889Y470065D01*
X617453Y469646D01*
X619527D01*
X621529Y470183D01*
X623325Y471219D01*
X624791Y472685D01*
X625827Y474481D01*
X626364Y476483D01*
Y478557D01*
X625827Y480559D01*
X624791Y482355D01*
X623325Y483821D01*
X621529Y484857D01*
X619527Y485394D01*
X617453D01*
X615451Y484857D01*
X613655Y483821D01*
X612189Y482355D01*
X611153Y480559D01*
X611142Y480520D01*
X611040Y480424D01*
X610933Y480190D01*
X610836Y480035D01*
X610691Y479851D01*
X610491Y479644D01*
X610231Y479418D01*
X609911Y479178D01*
X609546Y478939D01*
X608567Y478404D01*
X607996Y478138D01*
X607940Y478076D01*
X522813Y440266D01*
X522736Y440267D01*
X521561Y439798D01*
X521091Y439647D01*
X520650Y439531D01*
X520257Y439454D01*
X519915Y439413D01*
X519627Y439403D01*
X519393Y439418D01*
X519213Y439451D01*
X518968Y439529D01*
X518729Y439509D01*
X517165Y439928D01*
X515091D01*
X513089Y439391D01*
X511293Y438355D01*
X509827Y436889D01*
X508791Y435093D01*
X508254Y433091D01*
Y431017D01*
X508791Y429015D01*
X509827Y427219D01*
X511293Y425753D01*
X513089Y424717D01*
X515091Y424180D01*
X515267D01*
X515420Y424089D01*
X515675Y424052D01*
X515851Y424003D01*
X516068Y423915D01*
X516323Y423780D01*
X516612Y423594D01*
X516932Y423353D01*
X517263Y423069D01*
X518050Y422279D01*
X518466Y421805D01*
X518541Y421768D01*
X758386Y137633D01*
X756758Y135683D01*
X616364Y216365D01*
X616320Y216428D01*
X615248Y217100D01*
X614849Y217390D01*
X614495Y217678D01*
X614201Y217950D01*
X613966Y218202D01*
X613788Y218428D01*
X613662Y218626D01*
X613582Y218791D01*
X613501Y219034D01*
X613318Y219245D01*
X613127Y219955D01*
X612091Y221751D01*
X610625Y223217D01*
X608829Y224253D01*
X606827Y224790D01*
X604753D01*
X602751Y224253D01*
X600955Y223217D01*
X599489Y221751D01*
X598453Y219955D01*
X597916Y217953D01*
Y215879D01*
X598453Y213877D01*
X599364Y212299D01*
X599397Y212116D01*
X599508Y211945D01*
X599523Y211908D01*
X599533Y211859D01*
X599535Y211769D01*
X599514Y211619D01*
X599454Y211404D01*
X599341Y211126D01*
X599168Y210793D01*
X598929Y210411D01*
X598638Y210005D01*
X597686Y208764D01*
X595298Y206932D01*
X592518Y205780D01*
X589727Y205413D01*
X589534Y205451D01*
X494297D01*
X494284Y205452D01*
Y205451D01*
X325927D01*
X325857Y205483D01*
X324593Y205532D01*
X324102Y205585D01*
X323652Y205658D01*
X323261Y205747D01*
X322932Y205848D01*
X322665Y205956D01*
X322458Y206065D01*
X322306Y206168D01*
X322114Y206339D01*
X321849Y206430D01*
X321319Y206961D01*
X319523Y207997D01*
X317521Y208534D01*
X315447D01*
X313445Y207997D01*
X311649Y206961D01*
X311093Y206405D01*
X310826Y206311D01*
X310635Y206139D01*
X310483Y206035D01*
X310277Y205926D01*
X310010Y205816D01*
X309682Y205714D01*
X309292Y205623D01*
X308862Y205550D01*
X307751Y205453D01*
X307120Y205438D01*
X307044Y205405D01*
X213341Y204943D01*
X213341Y204943D01*
X213340Y204943D01*
X213336Y204943D01*
X213182Y204911D01*
X213130Y204901D01*
X209327Y205276D01*
X205449Y206452D01*
X201874Y208363D01*
X198742Y210934D01*
X196171Y214066D01*
X194260Y217641D01*
X193084Y221519D01*
X192708Y225335D01*
X192751Y225552D01*
Y438912D01*
X192708Y439129D01*
X193084Y442945D01*
X194260Y446823D01*
X196171Y450398D01*
X198742Y453530D01*
X201874Y456101D01*
X205449Y458012D01*
X209327Y459188D01*
X213143Y459564D01*
X213360Y459521D01*
X264568D01*
X265731Y458218D01*
X265732Y457262D01*
X265663Y456872D01*
X265080Y455373D01*
X264261Y455034D01*
X263530Y454490D01*
X263140Y454220D01*
X263065Y454109D01*
X261496Y452821D01*
X259083Y449880D01*
X257289Y446524D01*
X256185Y442883D01*
X255812Y439097D01*
X255812Y439097D01*
X255380Y436736D01*
X254887Y435545D01*
X253758Y434074D01*
X252287Y432945D01*
X250574Y432235D01*
X248738Y431994D01*
X248735Y431994D01*
X242824D01*
Y432007D01*
X239563Y431686D01*
X236427Y430735D01*
X233536Y429190D01*
X231003Y427111D01*
X228924Y424578D01*
X227379Y421688D01*
X226428Y418551D01*
X226106Y415290D01*
X226120D01*
Y353060D01*
X226109D01*
X226420Y349898D01*
X227343Y346858D01*
X228840Y344056D01*
X230856Y341600D01*
X233312Y339584D01*
X236033Y338130D01*
X236126Y338031D01*
X237162Y337565D01*
X237577Y337349D01*
X238421Y336840D01*
X238757Y336605D01*
X239450Y336042D01*
X239731Y335776D01*
X240035Y335455D01*
X240332Y335322D01*
X241035Y334619D01*
X242671Y333675D01*
X244496Y333186D01*
X246385D01*
X248209Y333675D01*
X249845Y334619D01*
X251181Y335955D01*
X251602Y336684D01*
X251825Y336836D01*
X251876Y336914D01*
X251889Y336927D01*
X251977Y337000D01*
X252142Y337112D01*
X252380Y337247D01*
X252658Y337384D01*
X254025Y337910D01*
X254575Y338084D01*
X254640Y338138D01*
X314538Y356265D01*
X314619Y356255D01*
X315728Y356560D01*
X316607Y356739D01*
X316931Y356781D01*
X317204Y356801D01*
X317403Y356800D01*
X317516Y356788D01*
X317535Y356783D01*
X317620Y356747D01*
X317847Y356745D01*
X318211Y356535D01*
X320036Y356046D01*
X321925D01*
X323749Y356535D01*
X325385Y357479D01*
X326721Y358815D01*
X327665Y360451D01*
X328154Y362276D01*
Y364165D01*
X327665Y365989D01*
X326721Y367625D01*
X325385Y368961D01*
X323749Y369905D01*
X322618Y370208D01*
X322113Y372418D01*
X322152Y372840D01*
X323504Y373562D01*
X327082Y376498D01*
X330018Y380076D01*
X332200Y384157D01*
X333543Y388586D01*
X333997Y393192D01*
X333950D01*
Y596646D01*
X333929Y596751D01*
X334282Y600331D01*
X335357Y603874D01*
X337102Y607139D01*
X339451Y610001D01*
X342313Y612350D01*
X345578Y614095D01*
X349121Y615170D01*
X352701Y615523D01*
X352806Y615502D01*
X742442D01*
X742596Y615532D01*
X746724Y615126D01*
X750842Y613877D01*
X754637Y611848D01*
X757963Y609119D01*
X760693Y605793D01*
X762721Y601998D01*
X763970Y597880D01*
X764377Y593752D01*
X764346Y593598D01*
Y562259D01*
X764289Y562138D01*
X764267Y561647D01*
X764211Y561238D01*
X764118Y560832D01*
X763985Y560426D01*
X763811Y560018D01*
X763594Y559606D01*
X763330Y559188D01*
X763018Y558766D01*
X762655Y558339D01*
X762208Y557875D01*
X762094Y557584D01*
X761541Y557031D01*
X760505Y555235D01*
X759968Y553233D01*
Y551159D01*
X760505Y549157D01*
X761541Y547361D01*
X763007Y545895D01*
X764803Y544859D01*
X766805Y544322D01*
X768879D01*
X770881Y544859D01*
X772677Y545895D01*
X774143Y547361D01*
X775179Y549157D01*
X775716Y551159D01*
Y553233D01*
X775179Y555235D01*
X774143Y557031D01*
X773589Y557584D01*
X773476Y557875D01*
X773029Y558339D01*
X772666Y558766D01*
X772354Y559188D01*
X772091Y559605D01*
X771873Y560018D01*
X771699Y560426D01*
X771566Y560832D01*
X771473Y561238D01*
X771417Y561648D01*
X771395Y562138D01*
X771338Y562259D01*
Y593598D01*
X771360D01*
X771004Y598122D01*
X769945Y602534D01*
X768208Y606727D01*
X765837Y610596D01*
X762890Y614046D01*
X759440Y616993D01*
X755571Y619364D01*
X751378Y621101D01*
X746966Y622160D01*
X742442Y622516D01*
Y622494D01*
X352806D01*
Y622552D01*
X347752Y622054D01*
X342892Y620580D01*
X338414Y618186D01*
X334488Y614964D01*
X331266Y611039D01*
X328872Y606560D01*
X327398Y601700D01*
X326900Y596646D01*
X326958D01*
Y447049D01*
X326840Y446908D01*
X324418Y445719D01*
X323749Y446105D01*
X321925Y446594D01*
X320036D01*
X318211Y446105D01*
X316575Y445161D01*
X315239Y443825D01*
X314295Y442189D01*
X313806Y440364D01*
Y438475D01*
X314295Y436651D01*
X315239Y435015D01*
X316575Y433679D01*
X318211Y432735D01*
X320036Y432246D01*
X321925D01*
X323749Y432735D01*
X324418Y433121D01*
X326840Y431932D01*
X326958Y431791D01*
Y421649D01*
X326840Y421508D01*
X324418Y420319D01*
X323749Y420705D01*
X321925Y421194D01*
X320036D01*
X318211Y420705D01*
X316575Y419761D01*
X315239Y418425D01*
X314295Y416789D01*
X313806Y414964D01*
Y413075D01*
X314295Y411251D01*
X315239Y409615D01*
X316575Y408279D01*
X318211Y407335D01*
X320036Y406846D01*
X321925D01*
X323749Y407335D01*
X324418Y407721D01*
X326840Y406532D01*
X326958Y406391D01*
Y396249D01*
X326840Y396108D01*
X324418Y394919D01*
X323749Y395305D01*
X321925Y395794D01*
X320036D01*
X318211Y395305D01*
X316575Y394361D01*
X315239Y393025D01*
X314295Y391389D01*
X313806Y389565D01*
Y387676D01*
X314295Y385851D01*
X315239Y384215D01*
X316575Y382879D01*
X318211Y381935D01*
X318574Y381838D01*
X319055Y380700D01*
X319024Y379087D01*
X316737Y377865D01*
X313624Y376921D01*
X310455Y376609D01*
X310388Y376622D01*
X295305D01*
X295184Y376679D01*
X294694Y376701D01*
X294284Y376757D01*
X293878Y376850D01*
X293472Y376983D01*
X293064Y377157D01*
X292652Y377374D01*
X292234Y377638D01*
X291812Y377950D01*
X291385Y378312D01*
X290921Y378760D01*
X290630Y378873D01*
X290077Y379427D01*
X288281Y380463D01*
X286279Y381000D01*
X284205D01*
X282203Y380463D01*
X280407Y379427D01*
X278941Y377961D01*
X277905Y376165D01*
X277368Y374163D01*
Y372089D01*
X277905Y370087D01*
X278941Y368291D01*
X280407Y366825D01*
X282203Y365789D01*
X284205Y365252D01*
X286279D01*
X288281Y365789D01*
X290077Y366825D01*
X290630Y367379D01*
X290921Y367492D01*
X291385Y367939D01*
X291812Y368302D01*
X292234Y368614D01*
X292652Y368877D01*
X293064Y369095D01*
X293472Y369269D01*
X293878Y369402D01*
X294284Y369495D01*
X294694Y369551D01*
X295184Y369573D01*
X295305Y369630D01*
X310388D01*
Y369583D01*
X312438Y369785D01*
X314177Y367404D01*
X314079Y367120D01*
X313614Y366139D01*
X312395Y365670D01*
X311845Y365496D01*
X311780Y365442D01*
X251882Y347315D01*
X251801Y347325D01*
X250692Y347020D01*
X249813Y346841D01*
X249489Y346799D01*
X249216Y346779D01*
X249017Y346781D01*
X248904Y346792D01*
X248885Y346797D01*
X248800Y346833D01*
X248573Y346835D01*
X248209Y347045D01*
X246385Y347534D01*
X244496D01*
X242671Y347045D01*
X241035Y346101D01*
X240758Y345824D01*
X240512Y345743D01*
X240114Y345402D01*
X239794Y345175D01*
X239502Y345012D01*
X239242Y344905D01*
X239009Y344845D01*
X238795Y344821D01*
X238584Y344829D01*
X238362Y344871D01*
X238116Y344954D01*
X237756Y345129D01*
X237621Y345137D01*
X235794Y346538D01*
X234329Y348449D01*
X233407Y350673D01*
X233101Y353002D01*
X233112Y353060D01*
Y415290D01*
X233098Y415361D01*
X233420Y417810D01*
X234393Y420158D01*
X235940Y422174D01*
X237521Y423386D01*
X238502Y423359D01*
X239402Y421560D01*
X239597Y420788D01*
X238755Y419329D01*
X238266Y417505D01*
Y415616D01*
X238755Y413791D01*
X239699Y412155D01*
X241035Y410819D01*
X242671Y409875D01*
X244496Y409386D01*
X246385D01*
X248209Y409875D01*
X249845Y410819D01*
X251181Y412155D01*
X252125Y413791D01*
X252614Y415616D01*
Y417505D01*
X252125Y419329D01*
X251181Y420965D01*
X249845Y422301D01*
X249518Y422489D01*
X250042Y425120D01*
X252397Y425430D01*
X255810Y426843D01*
X258740Y429092D01*
X260989Y432022D01*
X262402Y435435D01*
X262884Y439097D01*
X262884D01*
X263106Y441545D01*
X263207Y442316D01*
X264450Y445315D01*
X266426Y447891D01*
X267763Y448916D01*
X269987Y449687D01*
X273604Y450816D01*
X275918Y448929D01*
X275904Y448859D01*
Y416560D01*
X275935Y416406D01*
X275528Y412278D01*
X274279Y408160D01*
X272250Y404365D01*
X269521Y401039D01*
X266195Y398310D01*
X262400Y396281D01*
X258282Y395032D01*
X254226Y394633D01*
X254043Y394714D01*
X253524Y394728D01*
X253095Y394764D01*
X252714Y394821D01*
X252383Y394897D01*
X252100Y394986D01*
X251864Y395086D01*
X251670Y395193D01*
X251514Y395305D01*
X251385Y395422D01*
X251210Y395627D01*
X251149Y395658D01*
X251123Y395721D01*
X250954Y395791D01*
X249845Y396901D01*
X248209Y397845D01*
X246385Y398334D01*
X244496D01*
X242671Y397845D01*
X241035Y396901D01*
X239699Y395565D01*
X238755Y393929D01*
X238266Y392104D01*
Y390215D01*
X238755Y388391D01*
X239699Y386755D01*
X241035Y385419D01*
X242671Y384475D01*
X244496Y383986D01*
X246385D01*
X248209Y384475D01*
X249845Y385419D01*
X250954Y386529D01*
X251123Y386599D01*
X251149Y386662D01*
X251210Y386693D01*
X251385Y386898D01*
X251514Y387015D01*
X251670Y387127D01*
X251864Y387234D01*
X252100Y387334D01*
X252383Y387423D01*
X252714Y387499D01*
X253095Y387556D01*
X253524Y387592D01*
X254043Y387606D01*
X254151Y387654D01*
X258524Y387998D01*
X262936Y389057D01*
X267129Y390794D01*
X270998Y393165D01*
X274448Y396112D01*
X277395Y399562D01*
X279766Y403431D01*
X281503Y407624D01*
X282562Y412036D01*
X282918Y416560D01*
X282896D01*
Y448820D01*
X282935Y448859D01*
X283060Y449072D01*
X283480Y449496D01*
X283501Y449528D01*
X285463Y451137D01*
X287780Y453961D01*
X289501Y457182D01*
X290562Y460677D01*
X290920Y464312D01*
X290562Y467947D01*
X289501Y471442D01*
X287780Y474663D01*
X285463Y477487D01*
X283497Y479100D01*
X283476Y479131D01*
X283059Y479552D01*
X282935Y479765D01*
X282896Y479804D01*
Y592414D01*
X282988Y592482D01*
X285436Y593285D01*
X286535Y592187D01*
X288601Y590994D01*
X290907Y590376D01*
X293293D01*
X295599Y590994D01*
X297665Y592187D01*
X299353Y593875D01*
X300546Y595941D01*
X301164Y598247D01*
Y600633D01*
X300546Y602939D01*
X299353Y605005D01*
X297665Y606693D01*
X295599Y607886D01*
X293293Y608504D01*
X290907D01*
X288601Y607886D01*
X286535Y606693D01*
X285436Y605595D01*
X282988Y606398D01*
X282896Y606466D01*
Y623570D01*
X282887Y623615D01*
X283178Y625825D01*
X284049Y627925D01*
X285433Y629729D01*
X287237Y631114D01*
X289338Y631984D01*
X291548Y632275D01*
X291592Y632266D01*
X778002D01*
X778172Y632300D01*
X781516Y631860D01*
X784791Y630503D01*
X787603Y628345D01*
X789761Y625533D01*
X791117Y622258D01*
X791558Y618914D01*
X791524Y618744D01*
Y561751D01*
X791467Y561630D01*
X791445Y561139D01*
X791389Y560730D01*
X791296Y560324D01*
X791163Y559918D01*
X790989Y559510D01*
X790772Y559098D01*
X790508Y558680D01*
X790196Y558258D01*
X789834Y557831D01*
X789386Y557367D01*
X789273Y557076D01*
X788719Y556523D01*
X787683Y554727D01*
X787146Y552725D01*
Y550651D01*
X787683Y548649D01*
X788719Y546853D01*
X790185Y545387D01*
X791981Y544351D01*
X793983Y543814D01*
X796057D01*
X798059Y544351D01*
X799855Y545387D01*
X801321Y546853D01*
X802357Y548649D01*
X802894Y550651D01*
Y552725D01*
X802357Y554727D01*
X801321Y556523D01*
X800768Y557076D01*
X800654Y557367D01*
X800207Y557831D01*
X799844Y558258D01*
X799532Y558680D01*
X799268Y559098D01*
X799051Y559510D01*
X798877Y559918D01*
X798744Y560324D01*
X798651Y560730D01*
X798595Y561140D01*
X798573Y561630D01*
X798516Y561751D01*
Y618744D01*
X798548D01*
X798153Y622752D01*
X796984Y626607D01*
X795085Y630159D01*
X792530Y633272D01*
X789417Y635827D01*
X785865Y637726D01*
X782010Y638895D01*
X779689Y639124D01*
X779813Y641664D01*
X794512D01*
X794666Y641694D01*
X798794Y641288D01*
D02*
G37*
G36*
X729114Y507649D02*
X730063Y506768D01*
X730556Y506378D01*
X731060Y506024D01*
X731576Y505704D01*
X732104Y505419D01*
X732644Y505168D01*
X733196Y504952D01*
X733759Y504770D01*
X733558Y500845D01*
X733022Y500988D01*
X732486Y501065D01*
X731951Y501074D01*
X731415Y501017D01*
X730879Y500892D01*
X730343Y500700D01*
X729808Y500442D01*
X729272Y500116D01*
X728736Y499724D01*
X728201Y499264D01*
X728657Y508142D01*
X729114Y507649D01*
D02*
G37*
G36*
X712868Y499033D02*
X712917Y498486D01*
X713000Y497977D01*
X713115Y497506D01*
X713264Y497073D01*
X713445Y496679D01*
X713660Y496322D01*
X713908Y496003D01*
X714188Y495723D01*
X714502Y495481D01*
X707390D01*
X707704Y495723D01*
X707984Y496003D01*
X708232Y496322D01*
X708447Y496679D01*
X708628Y497073D01*
X708777Y497506D01*
X708892Y497977D01*
X708975Y498486D01*
X709025Y499033D01*
X709041Y499618D01*
X712851D01*
X712868Y499033D01*
D02*
G37*
G36*
X741662Y489872D02*
X741831Y489165D01*
X741934Y488824D01*
X742174Y488163D01*
X742312Y487843D01*
X742624Y487228D01*
X742798Y486931D01*
X740262Y482807D01*
X740210Y483042D01*
X740104Y483232D01*
X739944Y483378D01*
X739729Y483480D01*
X739459Y483538D01*
X739135Y483552D01*
X738756Y483521D01*
X738322Y483447D01*
X737834Y483328D01*
X737292Y483165D01*
X741596Y490236D01*
X741662Y489872D01*
D02*
G37*
G36*
X273812Y641664D02*
X290018D01*
X290142Y639124D01*
X288530Y638965D01*
X285585Y638072D01*
X282871Y636621D01*
X280493Y634669D01*
X278541Y632291D01*
X277090Y629577D01*
X276197Y626632D01*
X275895Y623570D01*
X275904D01*
Y610790D01*
X267970D01*
Y599440D01*
Y588090D01*
X275904D01*
Y479765D01*
X275918Y479695D01*
X273694Y477449D01*
X272288Y477634D01*
X268840Y477180D01*
X265627Y475849D01*
X263881Y474509D01*
X263790Y474449D01*
X263729Y474522D01*
X263559Y474451D01*
X261035Y474412D01*
X255471D01*
X253099Y474451D01*
X252273Y476649D01*
X251877Y480668D01*
X251908Y480822D01*
Y619760D01*
X251877Y619914D01*
X252284Y624042D01*
X253533Y628160D01*
X255562Y631955D01*
X258291Y635281D01*
X261617Y638010D01*
X265412Y640039D01*
X269530Y641288D01*
X273658Y641694D01*
X273812Y641664D01*
D02*
G37*
G36*
X616150Y471617D02*
X615804Y471727D01*
X615426Y471796D01*
X615017Y471822D01*
X614576Y471807D01*
X614104Y471750D01*
X613600Y471652D01*
X613065Y471511D01*
X612498Y471329D01*
X611271Y470840D01*
X608693Y476643D01*
X609313Y476932D01*
X610395Y477523D01*
X610857Y477826D01*
X611268Y478134D01*
X611627Y478446D01*
X611934Y478763D01*
X612188Y479084D01*
X612391Y479411D01*
X612541Y479742D01*
X616150Y471617D01*
D02*
G37*
G36*
X804879Y470313D02*
X805070Y469773D01*
X805387Y469297D01*
X805832Y468884D01*
X806403Y468535D01*
X807102Y468249D01*
X807927Y468027D01*
X808879Y467868D01*
X809959Y467773D01*
X811165Y467741D01*
Y461391D01*
X809959Y461359D01*
X808879Y461264D01*
X807927Y461105D01*
X807102Y460883D01*
X806403Y460597D01*
X805832Y460248D01*
X805387Y459835D01*
X805070Y459359D01*
X804879Y458819D01*
X804816Y458216D01*
Y470916D01*
X804879Y470313D01*
D02*
G37*
G36*
X525925Y432931D02*
X525305Y432642D01*
X524224Y432051D01*
X523761Y431748D01*
X523350Y431440D01*
X522991Y431128D01*
X522684Y430811D01*
X522508Y430588D01*
X522569Y430310D01*
X522707Y429891D01*
X522893Y429454D01*
X523129Y428998D01*
X523413Y428523D01*
X523746Y428030D01*
X524559Y426988D01*
X519707Y422892D01*
X519256Y423406D01*
X518386Y424280D01*
X517966Y424640D01*
X517556Y424948D01*
X517156Y425205D01*
X516766Y425411D01*
X516386Y425566D01*
X516016Y425670D01*
X515657Y425722D01*
X521654Y430784D01*
X518468Y437957D01*
X518814Y437847D01*
X519192Y437779D01*
X519602Y437752D01*
X520042Y437767D01*
X520514Y437824D01*
X521018Y437922D01*
X521553Y438063D01*
X522120Y438245D01*
X523347Y438735D01*
X525925Y432931D01*
D02*
G37*
G36*
X703990Y397608D02*
X704076Y397050D01*
X704221Y396535D01*
X704423Y396064D01*
X704682Y395635D01*
X705000Y395250D01*
X705375Y394908D01*
X705808Y394609D01*
X706298Y394353D01*
X706846Y394140D01*
X698906Y390345D01*
X699142Y391001D01*
X699703Y392872D01*
X699840Y393465D01*
X700039Y394603D01*
X700101Y395149D01*
X700151Y396193D01*
X703961Y398209D01*
X703990Y397608D01*
D02*
G37*
G36*
X250198Y394272D02*
X250476Y394019D01*
X250791Y393795D01*
X251141Y393601D01*
X251527Y393438D01*
X251950Y393303D01*
X252408Y393199D01*
X252903Y393125D01*
X253433Y393080D01*
X254000Y393065D01*
Y389255D01*
X253433Y389240D01*
X252903Y389195D01*
X252408Y389121D01*
X251950Y389017D01*
X251527Y388882D01*
X251141Y388719D01*
X250791Y388525D01*
X250476Y388301D01*
X250198Y388048D01*
X249956Y387765D01*
Y394555D01*
X250198Y394272D01*
D02*
G37*
G36*
X290278Y377088D02*
X290787Y376657D01*
X291302Y376276D01*
X291825Y375945D01*
X292355Y375666D01*
X292892Y375437D01*
X293435Y375260D01*
X293986Y375133D01*
X294544Y375056D01*
X295110Y375031D01*
Y371221D01*
X294544Y371196D01*
X293986Y371119D01*
X293435Y370992D01*
X292892Y370815D01*
X292355Y370586D01*
X291825Y370307D01*
X291302Y369976D01*
X290787Y369595D01*
X290278Y369164D01*
X289777Y368681D01*
Y377571D01*
X290278Y377088D01*
D02*
G37*
G36*
X318264Y358266D02*
X318050Y358356D01*
X317794Y358417D01*
X317494Y358449D01*
X317151Y358451D01*
X316764Y358423D01*
X316334Y358367D01*
X315345Y358165D01*
X314182Y357845D01*
X312342Y363923D01*
X312941Y364113D01*
X314423Y364683D01*
X314812Y364874D01*
X315149Y365066D01*
X315433Y365258D01*
X315665Y365451D01*
X315845Y365643D01*
X315972Y365837D01*
X318264Y358266D01*
D02*
G37*
G36*
X254077Y339657D02*
X253479Y339467D01*
X251997Y338897D01*
X251608Y338706D01*
X251271Y338514D01*
X250987Y338322D01*
X250755Y338130D01*
X250575Y337937D01*
X250448Y337743D01*
X248156Y345314D01*
X248370Y345224D01*
X248626Y345163D01*
X248926Y345131D01*
X249269Y345129D01*
X249656Y345157D01*
X250086Y345213D01*
X251075Y345415D01*
X252238Y345734D01*
X254077Y339657D01*
D02*
G37*
G36*
X241232Y336589D02*
X240898Y336942D01*
X240540Y337282D01*
X239751Y337923D01*
X239320Y338224D01*
X238385Y338788D01*
X237882Y339050D01*
X236802Y339536D01*
X237034Y343645D01*
X237489Y343424D01*
X237945Y343271D01*
X238400Y343185D01*
X238855Y343168D01*
X239310Y343218D01*
X239765Y343337D01*
X240220Y343524D01*
X240676Y343778D01*
X241131Y344101D01*
X241586Y344491D01*
X241232Y336589D01*
D02*
G37*
G36*
X616770Y342871D02*
X616900Y342217D01*
X617067Y341598D01*
X617271Y341014D01*
X617512Y340466D01*
X617790Y339953D01*
X618105Y339475D01*
X618458Y339033D01*
X618847Y338627D01*
X619274Y338255D01*
X616905Y335272D01*
X616446Y335603D01*
X615962Y335891D01*
X615452Y336134D01*
X614915Y336333D01*
X614352Y336488D01*
X613764Y336598D01*
X613149Y336665D01*
X612509Y336687D01*
X611842Y336665D01*
X611149Y336599D01*
X616678Y343561D01*
X616770Y342871D01*
D02*
G37*
G36*
X638007Y341323D02*
X638500Y340873D01*
X639001Y340473D01*
X639512Y340124D01*
X640031Y339826D01*
X640559Y339578D01*
X641096Y339381D01*
X641642Y339234D01*
X642197Y339138D01*
X642761Y339092D01*
X642624Y335285D01*
X642058Y335280D01*
X641498Y335224D01*
X640942Y335117D01*
X640393Y334958D01*
X639848Y334749D01*
X639308Y334489D01*
X638774Y334178D01*
X638245Y333816D01*
X637721Y333403D01*
X637203Y332939D01*
X637523Y341823D01*
X638007Y341323D01*
D02*
G37*
G36*
X612052Y218166D02*
X612220Y217820D01*
X612440Y217474D01*
X612712Y217127D01*
X613036Y216780D01*
X613413Y216431D01*
X613842Y216082D01*
X614324Y215732D01*
X615443Y215030D01*
X612279Y209525D01*
X611681Y209854D01*
X610565Y210378D01*
X610047Y210573D01*
X609556Y210723D01*
X609092Y210829D01*
X608656Y210889D01*
X608496Y210896D01*
X608140Y210351D01*
X607001Y208365D01*
X606645Y207708D01*
X599938Y208987D01*
X600301Y209492D01*
X600602Y209974D01*
X600841Y210434D01*
X601018Y210870D01*
X601133Y211284D01*
X601187Y211675D01*
X601178Y212044D01*
X601108Y212389D01*
X600976Y212712D01*
X600782Y213011D01*
X607956Y211583D01*
X611937Y218510D01*
X612052Y218166D01*
D02*
G37*
G36*
X321291Y204864D02*
X321608Y204648D01*
X321971Y204457D01*
X322380Y204292D01*
X322835Y204153D01*
X323335Y204038D01*
X323881Y203949D01*
X324473Y203886D01*
X325793Y203835D01*
Y197485D01*
X325110Y197472D01*
X323881Y197371D01*
X323335Y197282D01*
X322835Y197167D01*
X322380Y197028D01*
X321971Y196863D01*
X321608Y196672D01*
X321291Y196456D01*
X321019Y196215D01*
Y205105D01*
X321291Y204864D01*
D02*
G37*
G36*
X311971Y196193D02*
X311698Y196433D01*
X311380Y196647D01*
X311015Y196836D01*
X310606Y196999D01*
X310150Y197136D01*
X309650Y197248D01*
X309103Y197334D01*
X308511Y197395D01*
X307190Y197439D01*
X307159Y203789D01*
X307842Y203805D01*
X309071Y203913D01*
X309616Y204004D01*
X310116Y204121D01*
X310570Y204263D01*
X310978Y204430D01*
X311340Y204622D01*
X311657Y204840D01*
X311927Y205083D01*
X311971Y196193D01*
D02*
G37*
G36*
X787540Y122926D02*
X787641Y121697D01*
X787730Y121151D01*
X787844Y120651D01*
X787984Y120196D01*
X788149Y119787D01*
X788340Y119424D01*
X788556Y119107D01*
X788797Y118835D01*
X782694D01*
X780817Y117251D01*
X778205Y112706D01*
X778090Y113050D01*
X777922Y113396D01*
X777702Y113742D01*
X777430Y114089D01*
X777105Y114436D01*
X776729Y114785D01*
X776300Y115134D01*
X775818Y115484D01*
X774699Y116186D01*
X776270Y118919D01*
X775921Y119366D01*
X777096Y120358D01*
X777863Y121691D01*
X778355Y121420D01*
X780773Y123462D01*
X781155Y123027D01*
X781177Y123609D01*
X787527D01*
X787540Y122926D01*
D02*
G37*
G36*
X522891Y124321D02*
X522986Y123366D01*
X523145Y122485D01*
X523367Y121675D01*
X523653Y120938D01*
X524002Y120273D01*
X524415Y119680D01*
X524891Y119160D01*
X525431Y118712D01*
X526034Y118336D01*
X513334D01*
X513937Y118712D01*
X514477Y119160D01*
X514953Y119680D01*
X515366Y120273D01*
X515715Y120938D01*
X516001Y121675D01*
X516223Y122485D01*
X516382Y123366D01*
X516477Y124321D01*
X516509Y125347D01*
X522859D01*
X522891Y124321D01*
D02*
G37*
G36*
X499324Y104113D02*
X498085Y102635D01*
X497582Y101912D01*
X497156Y101198D01*
X496808Y100495D01*
X496537Y99801D01*
X496344Y99118D01*
X496228Y98444D01*
X496189Y97781D01*
X492379D01*
X492340Y98444D01*
X492224Y99118D01*
X492031Y99801D01*
X491760Y100495D01*
X491412Y101198D01*
X490986Y101912D01*
X490483Y102635D01*
X489902Y103369D01*
X489244Y104113D01*
X488509Y104866D01*
X500059D01*
X499324Y104113D01*
D02*
G37*
G36*
X473924D02*
X472685Y102635D01*
X472182Y101912D01*
X471757Y101198D01*
X471408Y100495D01*
X471137Y99801D01*
X470944Y99118D01*
X470828Y98444D01*
X470789Y97781D01*
X466979D01*
X466940Y98444D01*
X466824Y99118D01*
X466631Y99801D01*
X466360Y100495D01*
X466012Y101198D01*
X465586Y101912D01*
X465083Y102635D01*
X464502Y103369D01*
X463844Y104113D01*
X463109Y104866D01*
X474659D01*
X473924Y104113D01*
D02*
G37*
%LPC*%
G36*
X163750Y570150D02*
X153670D01*
Y560070D01*
X163750D01*
Y570150D01*
D02*
G37*
G36*
X151130D02*
X141050D01*
Y560070D01*
X151130D01*
Y570150D01*
D02*
G37*
G36*
X178993Y567864D02*
X176607D01*
X174301Y567246D01*
X172235Y566053D01*
X170547Y564365D01*
X169354Y562299D01*
X168736Y559993D01*
Y557607D01*
X169354Y555301D01*
X170547Y553235D01*
X172235Y551547D01*
X174301Y550354D01*
X176607Y549736D01*
X178993D01*
X181299Y550354D01*
X183365Y551547D01*
X185053Y553235D01*
X186246Y555301D01*
X186864Y557607D01*
Y559993D01*
X186246Y562299D01*
X185053Y564365D01*
X183365Y566053D01*
X181299Y567246D01*
X178993Y567864D01*
D02*
G37*
G36*
X163750Y557530D02*
X153670D01*
Y547450D01*
X163750D01*
Y557530D01*
D02*
G37*
G36*
X151130D02*
X141050D01*
Y547450D01*
X151130D01*
Y557530D01*
D02*
G37*
G36*
X79930Y486330D02*
X69850D01*
Y476250D01*
X79930D01*
Y486330D01*
D02*
G37*
G36*
X67310D02*
X57230D01*
Y476250D01*
X67310D01*
Y486330D01*
D02*
G37*
G36*
X95173Y484044D02*
X92787D01*
X90481Y483426D01*
X88415Y482233D01*
X86727Y480545D01*
X85534Y478479D01*
X84916Y476173D01*
Y473787D01*
X85534Y471481D01*
X86727Y469415D01*
X88415Y467727D01*
X90481Y466534D01*
X92787Y465916D01*
X95173D01*
X97479Y466534D01*
X99545Y467727D01*
X101233Y469415D01*
X102426Y471481D01*
X103044Y473787D01*
Y476173D01*
X102426Y478479D01*
X101233Y480545D01*
X99545Y482233D01*
X97479Y483426D01*
X95173Y484044D01*
D02*
G37*
G36*
X79930Y473710D02*
X69850D01*
Y463630D01*
X79930D01*
Y473710D01*
D02*
G37*
G36*
X67310D02*
X57230D01*
Y463630D01*
X67310D01*
Y473710D01*
D02*
G37*
G36*
X173214Y449134D02*
X158866D01*
Y434786D01*
X173214D01*
Y449134D01*
D02*
G37*
G36*
X798499Y448230D02*
X796113D01*
X793807Y447612D01*
X791741Y446419D01*
X790053Y444731D01*
X788860Y442665D01*
X788242Y440359D01*
Y437973D01*
X788860Y435667D01*
X790053Y433601D01*
X791741Y431913D01*
X793807Y430720D01*
X796113Y430102D01*
X798499D01*
X800805Y430720D01*
X802871Y431913D01*
X804559Y433601D01*
X805752Y435667D01*
X806370Y437973D01*
Y440359D01*
X805752Y442665D01*
X804559Y444731D01*
X802871Y446419D01*
X800805Y447612D01*
X798499Y448230D01*
D02*
G37*
G36*
X166985Y423734D02*
X165096D01*
X163271Y423245D01*
X161635Y422301D01*
X160299Y420965D01*
X159355Y419329D01*
X158866Y417505D01*
Y415616D01*
X159355Y413791D01*
X160299Y412155D01*
X161635Y410819D01*
X163271Y409875D01*
X165096Y409386D01*
X166985D01*
X168809Y409875D01*
X170445Y410819D01*
X171781Y412155D01*
X172725Y413791D01*
X173214Y415616D01*
Y417505D01*
X172725Y419329D01*
X171781Y420965D01*
X170445Y422301D01*
X168809Y423245D01*
X166985Y423734D01*
D02*
G37*
G36*
Y398334D02*
X165096D01*
X163271Y397845D01*
X161635Y396901D01*
X160299Y395565D01*
X159355Y393929D01*
X158866Y392104D01*
Y390215D01*
X159355Y388391D01*
X160299Y386755D01*
X161635Y385419D01*
X163271Y384475D01*
X165096Y383986D01*
X166985D01*
X168809Y384475D01*
X170445Y385419D01*
X171781Y386755D01*
X172725Y388391D01*
X173214Y390215D01*
Y392104D01*
X172725Y393929D01*
X171781Y395565D01*
X170445Y396901D01*
X168809Y397845D01*
X166985Y398334D01*
D02*
G37*
G36*
Y372934D02*
X165096D01*
X163271Y372445D01*
X161635Y371501D01*
X160299Y370165D01*
X159355Y368529D01*
X158866Y366704D01*
Y364815D01*
X159355Y362991D01*
X160299Y361355D01*
X161635Y360019D01*
X163271Y359075D01*
X165096Y358586D01*
X166985D01*
X168809Y359075D01*
X170445Y360019D01*
X171781Y361355D01*
X172725Y362991D01*
X173214Y364815D01*
Y366704D01*
X172725Y368529D01*
X171781Y370165D01*
X170445Y371501D01*
X168809Y372445D01*
X166985Y372934D01*
D02*
G37*
G36*
X46910Y366950D02*
X36830D01*
Y356870D01*
X46910D01*
Y366950D01*
D02*
G37*
G36*
X34290D02*
X24210D01*
Y356870D01*
X34290D01*
Y366950D01*
D02*
G37*
G36*
X62153Y364664D02*
X59767D01*
X57461Y364046D01*
X55395Y362853D01*
X53707Y361165D01*
X52514Y359099D01*
X51896Y356793D01*
Y354407D01*
X52514Y352101D01*
X53707Y350035D01*
X55395Y348347D01*
X57461Y347154D01*
X59767Y346536D01*
X62153D01*
X64459Y347154D01*
X66525Y348347D01*
X68213Y350035D01*
X69406Y352101D01*
X70024Y354407D01*
Y356793D01*
X69406Y359099D01*
X68213Y361165D01*
X66525Y362853D01*
X64459Y364046D01*
X62153Y364664D01*
D02*
G37*
G36*
X46910Y354330D02*
X36830D01*
Y344250D01*
X46910D01*
Y354330D01*
D02*
G37*
G36*
X34290D02*
X24210D01*
Y344250D01*
X34290D01*
Y354330D01*
D02*
G37*
G36*
X166985Y347534D02*
X165096D01*
X163271Y347045D01*
X161635Y346101D01*
X160299Y344765D01*
X159355Y343129D01*
X158866Y341305D01*
Y339416D01*
X159355Y337591D01*
X160299Y335955D01*
X161635Y334619D01*
X163271Y333675D01*
X165096Y333186D01*
X166985D01*
X168809Y333675D01*
X170445Y334619D01*
X171781Y335955D01*
X172725Y337591D01*
X173214Y339416D01*
Y341305D01*
X172725Y343129D01*
X171781Y344765D01*
X170445Y346101D01*
X168809Y347045D01*
X166985Y347534D01*
D02*
G37*
G36*
Y322134D02*
X165096D01*
X163271Y321645D01*
X161635Y320701D01*
X160299Y319365D01*
X159355Y317729D01*
X158866Y315905D01*
Y314016D01*
X159355Y312191D01*
X160299Y310555D01*
X161635Y309219D01*
X163271Y308275D01*
X165096Y307786D01*
X166985D01*
X168809Y308275D01*
X170445Y309219D01*
X171781Y310555D01*
X172725Y312191D01*
X173214Y314016D01*
Y315905D01*
X172725Y317729D01*
X171781Y319365D01*
X170445Y320701D01*
X168809Y321645D01*
X166985Y322134D01*
D02*
G37*
G36*
X834112Y325834D02*
X831144D01*
X828276Y325066D01*
X825706Y323581D01*
X823607Y321482D01*
X822122Y318912D01*
X821354Y316044D01*
Y313076D01*
X822122Y310208D01*
X823607Y307638D01*
X825706Y305539D01*
X828276Y304054D01*
X831144Y303286D01*
X834112D01*
X836980Y304054D01*
X839550Y305539D01*
X841649Y307638D01*
X843134Y310208D01*
X843902Y313076D01*
Y316044D01*
X843134Y318912D01*
X841649Y321482D01*
X839550Y323581D01*
X836980Y325066D01*
X834112Y325834D01*
D02*
G37*
G36*
X166985Y296734D02*
X165096D01*
X163271Y296245D01*
X161635Y295301D01*
X160299Y293965D01*
X159355Y292329D01*
X158866Y290504D01*
Y288615D01*
X159355Y286791D01*
X160299Y285155D01*
X161635Y283819D01*
X163271Y282875D01*
X165096Y282386D01*
X166985D01*
X168809Y282875D01*
X170445Y283819D01*
X171781Y285155D01*
X172725Y286791D01*
X173214Y288615D01*
Y290504D01*
X172725Y292329D01*
X171781Y293965D01*
X170445Y295301D01*
X168809Y296245D01*
X166985Y296734D01*
D02*
G37*
G36*
X167310Y273613D02*
Y265430D01*
X175493D01*
X174855Y267811D01*
X173610Y269969D01*
X171849Y271730D01*
X169691Y272975D01*
X167310Y273613D01*
D02*
G37*
G36*
X164770D02*
X162389Y272975D01*
X160231Y271730D01*
X158470Y269969D01*
X157225Y267811D01*
X156587Y265430D01*
X164770D01*
Y273613D01*
D02*
G37*
G36*
X25400Y303862D02*
X20628Y303392D01*
X16039Y302000D01*
X11810Y299739D01*
X8103Y296697D01*
X5061Y292990D01*
X2800Y288761D01*
X1408Y284172D01*
X938Y279400D01*
X1408Y274628D01*
X2800Y270039D01*
X5061Y265810D01*
X8103Y262103D01*
X11810Y259061D01*
X16039Y256800D01*
X20628Y255408D01*
X25400Y254938D01*
X30172Y255408D01*
X34761Y256800D01*
X38990Y259061D01*
X42697Y262103D01*
X45739Y265810D01*
X48000Y270039D01*
X49392Y274628D01*
X49862Y279400D01*
X49392Y284172D01*
X48000Y288761D01*
X45739Y292990D01*
X42697Y296697D01*
X38990Y299739D01*
X34761Y302000D01*
X30172Y303392D01*
X25400Y303862D01*
D02*
G37*
G36*
X175493Y262890D02*
X167310D01*
Y254707D01*
X169691Y255345D01*
X171849Y256590D01*
X173610Y258351D01*
X174855Y260509D01*
X175493Y262890D01*
D02*
G37*
G36*
X164770D02*
X156587D01*
X157225Y260509D01*
X158470Y258351D01*
X160231Y256590D01*
X162389Y255345D01*
X164770Y254707D01*
Y262890D01*
D02*
G37*
G36*
X843902Y275834D02*
X821354D01*
Y253286D01*
X843902D01*
Y275834D01*
D02*
G37*
G36*
X709112D02*
X706144D01*
X703276Y275066D01*
X700706Y273581D01*
X698607Y271482D01*
X697122Y268912D01*
X696354Y266044D01*
Y263076D01*
X697122Y260208D01*
X698607Y257638D01*
X700706Y255539D01*
X703276Y254054D01*
X706144Y253286D01*
X709112D01*
X711980Y254054D01*
X714550Y255539D01*
X716649Y257638D01*
X718134Y260208D01*
X718902Y263076D01*
Y266044D01*
X718134Y268912D01*
X716649Y271482D01*
X714550Y273581D01*
X711980Y275066D01*
X709112Y275834D01*
D02*
G37*
G36*
X77390Y245030D02*
X67310D01*
Y234950D01*
X77390D01*
Y245030D01*
D02*
G37*
G36*
X64770D02*
X54690D01*
Y234950D01*
X64770D01*
Y245030D01*
D02*
G37*
G36*
X92633Y242744D02*
X90247D01*
X87941Y242126D01*
X85875Y240933D01*
X84187Y239245D01*
X82994Y237179D01*
X82376Y234873D01*
Y232487D01*
X82994Y230181D01*
X84187Y228115D01*
X85875Y226427D01*
X87941Y225234D01*
X90247Y224616D01*
X92633D01*
X94939Y225234D01*
X97005Y226427D01*
X98693Y228115D01*
X99886Y230181D01*
X100504Y232487D01*
Y234873D01*
X99886Y237179D01*
X98693Y239245D01*
X97005Y240933D01*
X94939Y242126D01*
X92633Y242744D01*
D02*
G37*
G36*
X77390Y232410D02*
X67310D01*
Y222330D01*
X77390D01*
Y232410D01*
D02*
G37*
G36*
X64770D02*
X54690D01*
Y222330D01*
X64770D01*
Y232410D01*
D02*
G37*
G36*
X163750Y163750D02*
X153670D01*
Y153670D01*
X163750D01*
Y163750D01*
D02*
G37*
G36*
X151130D02*
X141050D01*
Y153670D01*
X151130D01*
Y163750D01*
D02*
G37*
G36*
X392350Y161210D02*
X382270D01*
Y151130D01*
X392350D01*
Y161210D01*
D02*
G37*
G36*
X379730D02*
X369650D01*
Y151130D01*
X379730D01*
Y161210D01*
D02*
G37*
G36*
X178993Y161464D02*
X176607D01*
X174301Y160846D01*
X172235Y159653D01*
X170547Y157965D01*
X169354Y155899D01*
X168736Y153593D01*
Y151207D01*
X169354Y148901D01*
X170547Y146835D01*
X172235Y145147D01*
X174301Y143954D01*
X176607Y143336D01*
X178993D01*
X181299Y143954D01*
X183365Y145147D01*
X185053Y146835D01*
X186246Y148901D01*
X186864Y151207D01*
Y153593D01*
X186246Y155899D01*
X185053Y157965D01*
X183365Y159653D01*
X181299Y160846D01*
X178993Y161464D01*
D02*
G37*
G36*
X163750Y151130D02*
X153670D01*
Y141050D01*
X163750D01*
Y151130D01*
D02*
G37*
G36*
X151130D02*
X141050D01*
Y141050D01*
X151130D01*
Y151130D01*
D02*
G37*
G36*
X407593Y158924D02*
X405207D01*
X402901Y158306D01*
X400835Y157113D01*
X399147Y155425D01*
X397954Y153359D01*
X397336Y151053D01*
Y148667D01*
X397954Y146361D01*
X399147Y144295D01*
X400835Y142607D01*
X402901Y141414D01*
X405207Y140796D01*
X407593D01*
X409899Y141414D01*
X411965Y142607D01*
X413653Y144295D01*
X414846Y146361D01*
X415464Y148667D01*
Y151053D01*
X414846Y153359D01*
X413653Y155425D01*
X411965Y157113D01*
X409899Y158306D01*
X407593Y158924D01*
D02*
G37*
G36*
X392350Y148590D02*
X382270D01*
Y138510D01*
X392350D01*
Y148590D01*
D02*
G37*
G36*
X379730D02*
X369650D01*
Y138510D01*
X379730D01*
Y148590D01*
D02*
G37*
G36*
X278050Y123110D02*
X267970D01*
Y113030D01*
X278050D01*
Y123110D01*
D02*
G37*
G36*
X265430D02*
X255350D01*
Y113030D01*
X265430D01*
Y123110D01*
D02*
G37*
G36*
X445072Y122818D02*
X444754D01*
Y112028D01*
X455544D01*
Y112346D01*
X454722Y115413D01*
X453134Y118163D01*
X450889Y120408D01*
X448139Y121996D01*
X445072Y122818D01*
D02*
G37*
G36*
X442214D02*
X441896D01*
X438829Y121996D01*
X436079Y120408D01*
X433834Y118163D01*
X432246Y115413D01*
X431424Y112346D01*
Y112028D01*
X442214D01*
Y122818D01*
D02*
G37*
G36*
X293293Y120824D02*
X290907D01*
X288601Y120206D01*
X286535Y119013D01*
X284847Y117325D01*
X283654Y115259D01*
X283036Y112953D01*
Y110567D01*
X283654Y108261D01*
X284847Y106195D01*
X286535Y104507D01*
X288601Y103314D01*
X290907Y102696D01*
X293293D01*
X295599Y103314D01*
X297665Y104507D01*
X299353Y106195D01*
X300546Y108261D01*
X301164Y110567D01*
Y112953D01*
X300546Y115259D01*
X299353Y117325D01*
X297665Y119013D01*
X295599Y120206D01*
X293293Y120824D01*
D02*
G37*
G36*
X278050Y110490D02*
X267970D01*
Y100410D01*
X278050D01*
Y110490D01*
D02*
G37*
G36*
X265430D02*
X255350D01*
Y100410D01*
X265430D01*
Y110490D01*
D02*
G37*
G36*
X455544Y109488D02*
X444754D01*
Y98698D01*
X445072D01*
X448139Y99520D01*
X450889Y101108D01*
X453134Y103353D01*
X454722Y106103D01*
X455544Y109170D01*
Y109488D01*
D02*
G37*
G36*
X442214D02*
X431424D01*
Y109170D01*
X432246Y106103D01*
X433834Y103353D01*
X436079Y101108D01*
X438829Y99520D01*
X441896Y98698D01*
X442214D01*
Y109488D01*
D02*
G37*
G36*
X648172Y91101D02*
Y78152D01*
X655788D01*
Y82382D01*
X655485Y84682D01*
X654597Y86825D01*
X653185Y88665D01*
X651345Y90077D01*
X649202Y90965D01*
X648172Y91101D01*
D02*
G37*
G36*
X559232D02*
X558202Y90965D01*
X556059Y90077D01*
X554219Y88665D01*
X552807Y86825D01*
X551919Y84682D01*
X551616Y82382D01*
Y78152D01*
X559232D01*
Y91101D01*
D02*
G37*
G36*
X645632D02*
X644602Y90965D01*
X642459Y90077D01*
X640619Y88665D01*
X639207Y86825D01*
X638319Y84682D01*
X638016Y82382D01*
Y76812D01*
X635476Y75760D01*
X635306Y75929D01*
X633552Y76656D01*
X631652D01*
X629898Y75929D01*
X628555Y74586D01*
X627828Y72832D01*
Y70932D01*
X628555Y69178D01*
X629898Y67835D01*
X631652Y67108D01*
X633552D01*
X635306Y67835D01*
X635955Y68483D01*
X636004Y68496D01*
X638555Y68106D01*
X638774Y67984D01*
X639207Y66939D01*
X640619Y65099D01*
X642459Y63686D01*
X644602Y62799D01*
X645632Y62663D01*
Y76882D01*
Y91101D01*
D02*
G37*
G36*
X561772D02*
Y76882D01*
Y62663D01*
X562802Y62799D01*
X564945Y63686D01*
X566785Y65099D01*
X568198Y66939D01*
X568630Y67984D01*
X568849Y68106D01*
X571400Y68496D01*
X571449Y68483D01*
X572098Y67835D01*
X573852Y67108D01*
X575752D01*
X577506Y67835D01*
X578849Y69178D01*
X579576Y70932D01*
Y72832D01*
X578849Y74586D01*
X577506Y75929D01*
X575752Y76656D01*
X573852D01*
X572098Y75929D01*
X571928Y75760D01*
X569388Y76812D01*
Y82382D01*
X569085Y84682D01*
X568198Y86825D01*
X566785Y88665D01*
X564945Y90077D01*
X562802Y90965D01*
X561772Y91101D01*
D02*
G37*
G36*
X614472Y131064D02*
X612856D01*
X611362Y130445D01*
X610219Y129302D01*
X609600Y127808D01*
Y126192D01*
X609936Y125381D01*
X603349Y73156D01*
X603107Y72914D01*
X602488Y71420D01*
Y69804D01*
X603107Y68310D01*
X604250Y67167D01*
X605744Y66548D01*
X607360D01*
X608854Y67167D01*
X609997Y68310D01*
X610616Y69804D01*
Y71420D01*
X610280Y72231D01*
X616867Y124456D01*
X617109Y124698D01*
X617728Y126192D01*
Y127808D01*
X617109Y129302D01*
X615966Y130445D01*
X614472Y131064D01*
D02*
G37*
G36*
X655788Y75612D02*
X648172D01*
Y62663D01*
X649202Y62799D01*
X651345Y63686D01*
X653185Y65099D01*
X654597Y66939D01*
X655485Y69082D01*
X655788Y71382D01*
Y75612D01*
D02*
G37*
G36*
X559232D02*
X551616D01*
Y71382D01*
X551919Y69082D01*
X552807Y66939D01*
X554219Y65099D01*
X556059Y63686D01*
X558202Y62799D01*
X559232Y62663D01*
Y75612D01*
D02*
G37*
G36*
X655788Y33812D02*
X648172D01*
Y22363D01*
X649202Y22499D01*
X651345Y23386D01*
X653185Y24799D01*
X654597Y26639D01*
X655485Y28782D01*
X655788Y31082D01*
Y33812D01*
D02*
G37*
G36*
X569388D02*
X561772D01*
Y22363D01*
X562802Y22499D01*
X564945Y23386D01*
X566785Y24799D01*
X568198Y26639D01*
X569085Y28782D01*
X569388Y31082D01*
Y33812D01*
D02*
G37*
G36*
X645632D02*
X638016D01*
Y31082D01*
X638319Y28782D01*
X639207Y26639D01*
X640619Y24799D01*
X642459Y23386D01*
X644602Y22499D01*
X645632Y22363D01*
Y33812D01*
D02*
G37*
G36*
X559232D02*
X551616D01*
Y31082D01*
X551919Y28782D01*
X552807Y26639D01*
X554219Y24799D01*
X556059Y23386D01*
X558202Y22499D01*
X559232Y22363D01*
Y33812D01*
D02*
G37*
G36*
X344424Y67896D02*
X339652Y67426D01*
X335063Y66034D01*
X330834Y63773D01*
X327127Y60731D01*
X324085Y57024D01*
X321824Y52795D01*
X320432Y48206D01*
X319962Y43434D01*
X320432Y38662D01*
X321824Y34073D01*
X324085Y29844D01*
X327127Y26137D01*
X330834Y23095D01*
X335063Y20834D01*
X339652Y19442D01*
X344424Y18972D01*
X349196Y19442D01*
X353785Y20834D01*
X358014Y23095D01*
X361721Y26137D01*
X364763Y29844D01*
X367024Y34073D01*
X368416Y38662D01*
X368886Y43434D01*
X368416Y48206D01*
X367024Y52795D01*
X364763Y57024D01*
X361721Y60731D01*
X358014Y63773D01*
X353785Y66034D01*
X349196Y67426D01*
X344424Y67896D01*
D02*
G37*
G36*
X730050Y588826D02*
X702002D01*
Y560778D01*
X730050D01*
Y588826D01*
D02*
G37*
G36*
X641872D02*
X638180D01*
X634613Y587870D01*
X631415Y586024D01*
X628804Y583413D01*
X626958Y580215D01*
X626002Y576648D01*
Y572956D01*
X626958Y569389D01*
X628804Y566191D01*
X631415Y563580D01*
X634613Y561734D01*
X638180Y560778D01*
X641872D01*
X645439Y561734D01*
X648637Y563580D01*
X651248Y566191D01*
X653094Y569389D01*
X654050Y572956D01*
Y576648D01*
X653094Y580215D01*
X651248Y583413D01*
X648637Y586024D01*
X645439Y587870D01*
X641872Y588826D01*
D02*
G37*
G36*
X392350Y570150D02*
X382270D01*
Y560070D01*
X392350D01*
Y570150D01*
D02*
G37*
G36*
X379730D02*
X369650D01*
Y560070D01*
X379730D01*
Y570150D01*
D02*
G37*
G36*
X407593Y567864D02*
X405207D01*
X402901Y567246D01*
X400835Y566053D01*
X399147Y564365D01*
X397954Y562299D01*
X397336Y559993D01*
Y557607D01*
X397954Y555301D01*
X399147Y553235D01*
X400835Y551547D01*
X402901Y550354D01*
X405207Y549736D01*
X407593D01*
X409899Y550354D01*
X411965Y551547D01*
X413653Y553235D01*
X414846Y555301D01*
X415464Y557607D01*
Y559993D01*
X414846Y562299D01*
X413653Y564365D01*
X411965Y566053D01*
X409899Y567246D01*
X407593Y567864D01*
D02*
G37*
G36*
X392350Y557530D02*
X382270D01*
Y547450D01*
X392350D01*
Y557530D01*
D02*
G37*
G36*
X379730D02*
X369650D01*
Y547450D01*
X379730D01*
Y557530D01*
D02*
G37*
G36*
X473630Y486330D02*
X463550D01*
Y476250D01*
X473630D01*
Y486330D01*
D02*
G37*
G36*
X461010D02*
X450930D01*
Y476250D01*
X461010D01*
Y486330D01*
D02*
G37*
G36*
X488873Y484044D02*
X486487D01*
X484181Y483426D01*
X482115Y482233D01*
X480427Y480545D01*
X479234Y478479D01*
X478616Y476173D01*
Y473787D01*
X479234Y471481D01*
X480427Y469415D01*
X482115Y467727D01*
X484181Y466534D01*
X486487Y465916D01*
X488873D01*
X491179Y466534D01*
X493245Y467727D01*
X494933Y469415D01*
X496126Y471481D01*
X496744Y473787D01*
Y476173D01*
X496126Y478479D01*
X494933Y480545D01*
X493245Y482233D01*
X491179Y483426D01*
X488873Y484044D01*
D02*
G37*
G36*
X473630Y473710D02*
X463550D01*
Y463630D01*
X473630D01*
Y473710D01*
D02*
G37*
G36*
X461010D02*
X450930D01*
Y463630D01*
X461010D01*
Y473710D01*
D02*
G37*
G36*
X401650Y448873D02*
Y440690D01*
X409833D01*
X409195Y443071D01*
X407950Y445229D01*
X406189Y446990D01*
X404031Y448235D01*
X401650Y448873D01*
D02*
G37*
G36*
X399110D02*
X396729Y448235D01*
X394571Y446990D01*
X392810Y445229D01*
X391565Y443071D01*
X390927Y440690D01*
X399110D01*
Y448873D01*
D02*
G37*
G36*
X246385Y449134D02*
X244496D01*
X242671Y448645D01*
X241035Y447701D01*
X239699Y446365D01*
X238755Y444729D01*
X238266Y442905D01*
Y441016D01*
X238755Y439191D01*
X239699Y437555D01*
X241035Y436219D01*
X242671Y435275D01*
X244496Y434786D01*
X246385D01*
X248209Y435275D01*
X249845Y436219D01*
X251181Y437555D01*
X252125Y439191D01*
X252614Y441016D01*
Y442905D01*
X252125Y444729D01*
X251181Y446365D01*
X249845Y447701D01*
X248209Y448645D01*
X246385Y449134D01*
D02*
G37*
G36*
X409833Y438150D02*
X401650D01*
Y429967D01*
X404031Y430605D01*
X406189Y431850D01*
X407950Y433611D01*
X409195Y435769D01*
X409833Y438150D01*
D02*
G37*
G36*
X399110D02*
X390927D01*
X391565Y435769D01*
X392810Y433611D01*
X394571Y431850D01*
X396729Y430605D01*
X399110Y429967D01*
Y438150D01*
D02*
G37*
G36*
X401325Y421194D02*
X399436D01*
X397611Y420705D01*
X395975Y419761D01*
X394639Y418425D01*
X393695Y416789D01*
X393206Y414964D01*
Y413075D01*
X393695Y411251D01*
X394639Y409615D01*
X395975Y408279D01*
X397611Y407335D01*
X399436Y406846D01*
X401325D01*
X403149Y407335D01*
X404785Y408279D01*
X406121Y409615D01*
X407065Y411251D01*
X407554Y413075D01*
Y414964D01*
X407065Y416789D01*
X406121Y418425D01*
X404785Y419761D01*
X403149Y420705D01*
X401325Y421194D01*
D02*
G37*
G36*
Y395794D02*
X399436D01*
X397611Y395305D01*
X395975Y394361D01*
X394639Y393025D01*
X393695Y391389D01*
X393206Y389565D01*
Y387676D01*
X393695Y385851D01*
X394639Y384215D01*
X395975Y382879D01*
X397611Y381935D01*
X399436Y381446D01*
X401325D01*
X403149Y381935D01*
X404785Y382879D01*
X406121Y384215D01*
X407065Y385851D01*
X407554Y387676D01*
Y389565D01*
X407065Y391389D01*
X406121Y393025D01*
X404785Y394361D01*
X403149Y395305D01*
X401325Y395794D01*
D02*
G37*
G36*
X246710Y375213D02*
Y367030D01*
X254893D01*
X254255Y369411D01*
X253010Y371569D01*
X251249Y373330D01*
X249091Y374575D01*
X246710Y375213D01*
D02*
G37*
G36*
X244170D02*
X241789Y374575D01*
X239631Y373330D01*
X237870Y371569D01*
X236625Y369411D01*
X235987Y367030D01*
X244170D01*
Y375213D01*
D02*
G37*
G36*
X494966Y373300D02*
X484886D01*
Y363220D01*
X494966D01*
Y373300D01*
D02*
G37*
G36*
X482346D02*
X472266D01*
Y363220D01*
X482346D01*
Y373300D01*
D02*
G37*
G36*
X254893Y364490D02*
X246710D01*
Y356307D01*
X249091Y356945D01*
X251249Y358190D01*
X253010Y359951D01*
X254255Y362109D01*
X254893Y364490D01*
D02*
G37*
G36*
X244170D02*
X235987D01*
X236625Y362109D01*
X237870Y359951D01*
X239631Y358190D01*
X241789Y356945D01*
X244170Y356307D01*
Y364490D01*
D02*
G37*
G36*
X401325Y370394D02*
X399436D01*
X397611Y369905D01*
X395975Y368961D01*
X394639Y367625D01*
X393695Y365989D01*
X393206Y364165D01*
Y362276D01*
X393695Y360451D01*
X394639Y358815D01*
X395975Y357479D01*
X397611Y356535D01*
X399436Y356046D01*
X401325D01*
X403149Y356535D01*
X404785Y357479D01*
X406121Y358815D01*
X407065Y360451D01*
X407554Y362276D01*
Y364165D01*
X407065Y365989D01*
X406121Y367625D01*
X404785Y368961D01*
X403149Y369905D01*
X401325Y370394D01*
D02*
G37*
G36*
X443759Y558800D02*
X441685D01*
X439683Y558263D01*
X437887Y557227D01*
X436421Y555761D01*
X435385Y553965D01*
X434848Y551963D01*
Y549889D01*
X435385Y547887D01*
X436421Y546091D01*
X437887Y544625D01*
X439683Y543589D01*
X441685Y543052D01*
X443759D01*
X445761Y543589D01*
X447557Y544625D01*
X448087Y545156D01*
X448352Y545247D01*
X448544Y545418D01*
X448696Y545521D01*
X448903Y545630D01*
X449170Y545738D01*
X449499Y545839D01*
X449890Y545928D01*
X450320Y545998D01*
X451431Y546090D01*
X452062Y546102D01*
X452138Y546135D01*
X639826D01*
X640043Y546178D01*
X643859Y545802D01*
X647737Y544626D01*
X651312Y542715D01*
X654444Y540144D01*
X657015Y537012D01*
X658926Y533437D01*
X660102Y529559D01*
X660478Y525743D01*
X660435Y525526D01*
Y371139D01*
X660403Y371069D01*
X660354Y369805D01*
X660301Y369314D01*
X660228Y368864D01*
X660139Y368473D01*
X660038Y368144D01*
X659930Y367877D01*
X659821Y367670D01*
X659718Y367518D01*
X659547Y367326D01*
X659456Y367061D01*
X658925Y366531D01*
X657889Y364735D01*
X657352Y362733D01*
Y360659D01*
X657889Y358657D01*
X658925Y356861D01*
X660391Y355395D01*
X662187Y354359D01*
X664189Y353822D01*
X666263D01*
X668265Y354359D01*
X670061Y355395D01*
X671527Y356861D01*
X672563Y358657D01*
X673100Y360659D01*
Y362733D01*
X672563Y364735D01*
X671527Y366531D01*
X670996Y367061D01*
X670905Y367326D01*
X670734Y367518D01*
X670631Y367670D01*
X670522Y367877D01*
X670414Y368144D01*
X670313Y368473D01*
X670224Y368864D01*
X670154Y369294D01*
X670062Y370405D01*
X670050Y371036D01*
X670017Y371112D01*
Y525526D01*
X670018D01*
X669646Y530249D01*
X668540Y534856D01*
X666727Y539233D01*
X664252Y543272D01*
X661175Y546875D01*
X657572Y549952D01*
X653533Y552427D01*
X649156Y554240D01*
X644549Y555346D01*
X639826Y555718D01*
Y555717D01*
X452165D01*
X452095Y555749D01*
X450831Y555798D01*
X450340Y555851D01*
X449890Y555924D01*
X449499Y556013D01*
X449170Y556114D01*
X448903Y556222D01*
X448696Y556331D01*
X448544Y556434D01*
X448352Y556605D01*
X448087Y556696D01*
X447557Y557227D01*
X445761Y558263D01*
X443759Y558800D01*
D02*
G37*
G36*
X510209Y371014D02*
X507823D01*
X505517Y370396D01*
X503451Y369203D01*
X501763Y367515D01*
X500570Y365449D01*
X499952Y363143D01*
Y360757D01*
X500570Y358451D01*
X501763Y356385D01*
X503451Y354697D01*
X505517Y353504D01*
X507823Y352886D01*
X510209D01*
X512515Y353504D01*
X514581Y354697D01*
X516269Y356385D01*
X517462Y358451D01*
X518080Y360757D01*
Y363143D01*
X517462Y365449D01*
X516269Y367515D01*
X514581Y369203D01*
X512515Y370396D01*
X510209Y371014D01*
D02*
G37*
G36*
X494966Y360680D02*
X484886D01*
Y350600D01*
X494966D01*
Y360680D01*
D02*
G37*
G36*
X482346D02*
X472266D01*
Y350600D01*
X482346D01*
Y360680D01*
D02*
G37*
G36*
X322250Y347273D02*
Y339090D01*
X330433D01*
X329795Y341471D01*
X328550Y343629D01*
X326789Y345390D01*
X324631Y346635D01*
X322250Y347273D01*
D02*
G37*
G36*
X319710D02*
X317329Y346635D01*
X315171Y345390D01*
X313410Y343629D01*
X312165Y341471D01*
X311527Y339090D01*
X319710D01*
Y347273D01*
D02*
G37*
G36*
X401325Y344994D02*
X399436D01*
X397611Y344505D01*
X395975Y343561D01*
X394639Y342225D01*
X393695Y340589D01*
X393206Y338764D01*
Y336875D01*
X393695Y335051D01*
X394639Y333415D01*
X395975Y332079D01*
X397611Y331135D01*
X399436Y330646D01*
X401325D01*
X403149Y331135D01*
X404785Y332079D01*
X406121Y333415D01*
X407065Y335051D01*
X407554Y336875D01*
Y338764D01*
X407065Y340589D01*
X406121Y342225D01*
X404785Y343561D01*
X403149Y344505D01*
X401325Y344994D01*
D02*
G37*
G36*
X330433Y336550D02*
X322250D01*
Y328367D01*
X324631Y329005D01*
X326789Y330250D01*
X328550Y332011D01*
X329795Y334169D01*
X330433Y336550D01*
D02*
G37*
G36*
X319710D02*
X311527D01*
X312165Y334169D01*
X313410Y332011D01*
X315171Y330250D01*
X317329Y329005D01*
X319710Y328367D01*
Y336550D01*
D02*
G37*
G36*
X246385Y322134D02*
X244496D01*
X242671Y321645D01*
X241035Y320701D01*
X239699Y319365D01*
X238755Y317729D01*
X238266Y315905D01*
Y314016D01*
X238755Y312191D01*
X239699Y310555D01*
X241035Y309219D01*
X242671Y308275D01*
X244496Y307786D01*
X246385D01*
X248209Y308275D01*
X249845Y309219D01*
X251181Y310555D01*
X252125Y312191D01*
X252614Y314016D01*
Y315905D01*
X252125Y317729D01*
X251181Y319365D01*
X249845Y320701D01*
X248209Y321645D01*
X246385Y322134D01*
D02*
G37*
G36*
X401325Y319594D02*
X399436D01*
X397611Y319105D01*
X395975Y318161D01*
X394639Y316825D01*
X393695Y315189D01*
X393206Y313365D01*
Y311476D01*
X393695Y309651D01*
X394639Y308015D01*
X395975Y306679D01*
X397611Y305735D01*
X399436Y305246D01*
X401325D01*
X403149Y305735D01*
X404785Y306679D01*
X406121Y308015D01*
X407065Y309651D01*
X407554Y311476D01*
Y313365D01*
X407065Y315189D01*
X406121Y316825D01*
X404785Y318161D01*
X403149Y319105D01*
X401325Y319594D01*
D02*
G37*
G36*
X321925D02*
X320036D01*
X318211Y319105D01*
X316575Y318161D01*
X315239Y316825D01*
X314295Y315189D01*
X313806Y313365D01*
Y311476D01*
X314295Y309651D01*
X315239Y308015D01*
X316575Y306679D01*
X318211Y305735D01*
X320036Y305246D01*
X321925D01*
X323749Y305735D01*
X325385Y306679D01*
X326721Y308015D01*
X327665Y309651D01*
X328154Y311476D01*
Y313365D01*
X327665Y315189D01*
X326721Y316825D01*
X325385Y318161D01*
X323749Y319105D01*
X321925Y319594D01*
D02*
G37*
G36*
X246385Y296734D02*
X244496D01*
X242671Y296245D01*
X241035Y295301D01*
X239699Y293965D01*
X238755Y292329D01*
X238266Y290504D01*
Y288615D01*
X238755Y286791D01*
X239699Y285155D01*
X241035Y283819D01*
X242671Y282875D01*
X244496Y282386D01*
X246385D01*
X248209Y282875D01*
X249845Y283819D01*
X251181Y285155D01*
X252125Y286791D01*
X252614Y288615D01*
Y290504D01*
X252125Y292329D01*
X251181Y293965D01*
X249845Y295301D01*
X248209Y296245D01*
X246385Y296734D01*
D02*
G37*
G36*
X401325Y294194D02*
X399436D01*
X397611Y293705D01*
X395975Y292761D01*
X394639Y291425D01*
X393695Y289789D01*
X393206Y287964D01*
Y286075D01*
X393695Y284251D01*
X394639Y282615D01*
X395975Y281279D01*
X397611Y280335D01*
X399436Y279846D01*
X401325D01*
X403149Y280335D01*
X404785Y281279D01*
X406121Y282615D01*
X407065Y284251D01*
X407554Y286075D01*
Y287964D01*
X407065Y289789D01*
X406121Y291425D01*
X404785Y292761D01*
X403149Y293705D01*
X401325Y294194D01*
D02*
G37*
G36*
X321925D02*
X320036D01*
X318211Y293705D01*
X316575Y292761D01*
X315239Y291425D01*
X314295Y289789D01*
X313806Y287964D01*
Y286075D01*
X314295Y284251D01*
X315239Y282615D01*
X316575Y281279D01*
X318211Y280335D01*
X320036Y279846D01*
X321925D01*
X323749Y280335D01*
X325385Y281279D01*
X326721Y282615D01*
X327665Y284251D01*
X328154Y286075D01*
Y287964D01*
X327665Y289789D01*
X326721Y291425D01*
X325385Y292761D01*
X323749Y293705D01*
X321925Y294194D01*
D02*
G37*
G36*
X246385Y271334D02*
X244496D01*
X242671Y270845D01*
X241035Y269901D01*
X239699Y268565D01*
X238755Y266929D01*
X238266Y265105D01*
Y263216D01*
X238755Y261391D01*
X239699Y259755D01*
X241035Y258419D01*
X242671Y257475D01*
X244496Y256986D01*
X246385D01*
X248209Y257475D01*
X249845Y258419D01*
X251181Y259755D01*
X252125Y261391D01*
X252614Y263216D01*
Y265105D01*
X252125Y266929D01*
X251181Y268565D01*
X249845Y269901D01*
X248209Y270845D01*
X246385Y271334D01*
D02*
G37*
G36*
X407554Y268794D02*
X393206D01*
Y254446D01*
X407554D01*
Y268794D01*
D02*
G37*
G36*
X321925D02*
X320036D01*
X318211Y268305D01*
X316575Y267361D01*
X315239Y266025D01*
X314295Y264389D01*
X313806Y262565D01*
Y260676D01*
X314295Y258851D01*
X315239Y257215D01*
X316575Y255879D01*
X318211Y254935D01*
X320036Y254446D01*
X321925D01*
X323749Y254935D01*
X325385Y255879D01*
X326721Y257215D01*
X327665Y258851D01*
X328154Y260676D01*
Y262565D01*
X327665Y264389D01*
X326721Y266025D01*
X325385Y267361D01*
X323749Y268305D01*
X321925Y268794D01*
D02*
G37*
G36*
X471090Y247570D02*
X461010D01*
Y237490D01*
X471090D01*
Y247570D01*
D02*
G37*
G36*
X458470D02*
X448390D01*
Y237490D01*
X458470D01*
Y247570D01*
D02*
G37*
G36*
X486333Y245284D02*
X483947D01*
X481641Y244666D01*
X479575Y243473D01*
X477887Y241785D01*
X476694Y239719D01*
X476076Y237413D01*
Y235027D01*
X476694Y232721D01*
X477887Y230655D01*
X479575Y228967D01*
X481641Y227774D01*
X483947Y227156D01*
X486333D01*
X488639Y227774D01*
X490705Y228967D01*
X492393Y230655D01*
X493586Y232721D01*
X494204Y235027D01*
Y237413D01*
X493586Y239719D01*
X492393Y241785D01*
X490705Y243473D01*
X488639Y244666D01*
X486333Y245284D01*
D02*
G37*
G36*
X471090Y234950D02*
X461010D01*
Y224870D01*
X471090D01*
Y234950D01*
D02*
G37*
G36*
X458470D02*
X448390D01*
Y224870D01*
X458470D01*
Y234950D01*
D02*
G37*
%LPD*%
G36*
X447529Y555130D02*
X447846Y554914D01*
X448209Y554723D01*
X448618Y554558D01*
X449073Y554418D01*
X449573Y554304D01*
X450119Y554215D01*
X450711Y554152D01*
X452031Y554101D01*
Y547751D01*
X451348Y547738D01*
X450119Y547637D01*
X449573Y547548D01*
X449073Y547434D01*
X448618Y547294D01*
X448209Y547129D01*
X447846Y546938D01*
X447529Y546722D01*
X447257Y546481D01*
Y555371D01*
X447529Y555130D01*
D02*
G37*
G36*
X668414Y370322D02*
X668515Y369093D01*
X668604Y368547D01*
X668718Y368047D01*
X668858Y367592D01*
X669023Y367183D01*
X669214Y366820D01*
X669430Y366503D01*
X669671Y366231D01*
X660781D01*
X661022Y366503D01*
X661238Y366820D01*
X661429Y367183D01*
X661594Y367592D01*
X661733Y368047D01*
X661848Y368547D01*
X661937Y369093D01*
X662000Y369685D01*
X662051Y371005D01*
X668401D01*
X668414Y370322D01*
D02*
G37*
%LPC*%
G36*
X265430Y610790D02*
X255350D01*
Y600710D01*
X265430D01*
Y610790D01*
D02*
G37*
G36*
Y598170D02*
X255350D01*
Y588090D01*
X265430D01*
Y598170D01*
D02*
G37*
%LPD*%
D58*
X665226Y525526D02*
G03*
X639826Y550926I-25400J0D01*
G01*
X213360Y464312D02*
G03*
X187960Y438912I0J-25400D01*
G01*
X213341Y200152D02*
G03*
X213360Y200152I19J25400D01*
G01*
X187960Y225552D02*
G03*
X213341Y200152I25400J0D01*
G01*
X519684Y175260D02*
G03*
X494284Y200660I-25400J0D01*
G01*
X589534D02*
G03*
X605790Y216916I0J16256D01*
G01*
X866140Y439166D02*
G03*
X840740Y464566I-25400J0D01*
G01*
X807212Y167386D02*
G03*
X784352Y144526I0J-22860D01*
G01*
X840740Y167386D02*
G03*
X866140Y192786I0J25400D01*
G01*
X665226Y361696D02*
Y525526D01*
X442722Y550926D02*
X639826D01*
X245440Y340360D02*
X320980Y363220D01*
X187960Y225552D02*
Y438912D01*
X213360Y200152D02*
X316484Y200660D01*
X494284D01*
X519684Y110758D02*
Y175260D01*
X516128Y432054D02*
X618490Y477520D01*
X494284Y200660D02*
X589534D01*
X797306Y464566D02*
X840740D01*
X605790Y216916D02*
X784352Y114300D01*
X866140Y192786D02*
Y439166D01*
X784352Y114300D02*
Y144526D01*
X516128Y432054D02*
X784352Y114300D01*
X807212Y167386D02*
X840740D01*
X213360Y464312D02*
X272288D01*
D59*
X653288Y55880D02*
G03*
X664972Y67564I0J11684D01*
G01*
X677418Y80010D02*
G03*
X664972Y67564I0J-12446D01*
G01*
X736346Y525018D02*
G03*
X710946Y499618I0J-25400D01*
G01*
X827024Y148336D02*
G03*
X801624Y122936I0J-25400D01*
G01*
X856996Y148336D02*
G03*
X882396Y173736I0J25400D01*
G01*
Y499618D02*
G03*
X856996Y525018I-25400J0D01*
G01*
X494284Y81280D02*
G03*
X519684Y55880I25400J0D01*
G01*
X776224Y80010D02*
G03*
X801624Y105410I0J25400D01*
G01*
X468884Y74930D02*
G03*
X494284Y49530I25400J0D01*
G01*
X657860D02*
G03*
X672338Y64008I0J14478D01*
G01*
X680974Y72644D02*
G03*
X672338Y64008I0J-8636D01*
G01*
X787400Y72644D02*
G03*
X812800Y98044I0J25400D01*
G01*
X836422Y139446D02*
G03*
X812800Y115824I0J-23622D01*
G01*
X871220Y139446D02*
G03*
X891032Y159258I0J19812D01*
G01*
Y509524D02*
G03*
X865632Y534924I-25400J0D01*
G01*
X727456D02*
G03*
X702056Y509524I0J-25400D01*
G01*
X701809Y493704D02*
G03*
X702056Y495054I-3563J1350D01*
G01*
X701809Y493704D02*
G03*
X701808Y486739I9137J-3484D01*
G01*
X702056Y485386D02*
G03*
X701808Y486739I-3810J0D01*
G01*
X702056Y390906D02*
G03*
X704850Y388112I2794J0D01*
G01*
X716788Y334518D02*
G03*
X742188Y359918I0J25400D01*
G01*
Y482346D02*
G03*
X735330Y489204I-6858J0D01*
G01*
X751586Y478536D02*
G03*
X726186Y503936I-25400J0D01*
G01*
X734568Y326898D02*
G03*
X751586Y343916I0J17018D01*
G01*
X734448Y326900D02*
G03*
X734568Y326898I120J3808D01*
G01*
X708071Y327732D02*
G03*
X703522Y327083I-443J-13172D01*
G01*
X702363Y326898D02*
G03*
X703522Y327083I-14J3810D01*
G01*
X640588Y326898D02*
G03*
X639645Y326780I0J-3810D01*
G01*
X631377Y326211D02*
G03*
X634667Y325508I2360J2991D01*
G01*
X716651Y334520D02*
G03*
X716788Y334518I137J3808D01*
G01*
X767842Y593598D02*
G03*
X742442Y618998I-25400J0D01*
G01*
X352806D02*
G03*
X330454Y596646I0J-22352D01*
G01*
X310388Y373126D02*
G03*
X330454Y393192I0J20066D01*
G01*
X254000Y391160D02*
G03*
X279400Y416560I0J25400D01*
G01*
X291592Y635762D02*
G03*
X279400Y623570I0J-12192D01*
G01*
X795020Y618744D02*
G03*
X778002Y635762I-17018J0D01*
G01*
X279400Y479765D02*
G03*
X281004Y476658I3810J0D01*
G01*
X281008Y451968D02*
G03*
X281004Y476658I-8720J12344D01*
G01*
X281008Y451968D02*
G03*
X279400Y448859I2202J-3109D01*
G01*
X819912Y619760D02*
G03*
X794512Y645160I-25400J0D01*
G01*
X273812D02*
G03*
X248412Y619760I0J-25400D01*
G01*
Y480822D02*
G03*
X249452Y473630I25400J0D01*
G01*
D02*
G03*
X253086Y470916I3649J1096D01*
G01*
X263572D02*
G03*
X266000Y471801I-14J3810D01*
G01*
X275220Y454983D02*
G03*
X266000Y471801I-2932J9329D01*
G01*
X266777Y452347D02*
G03*
X265612Y451748I1135J-3637D01*
G01*
D02*
G03*
X259334Y439097I9608J-12651D01*
G01*
X248735Y428498D02*
G03*
X259334Y439097I0J10599D01*
G01*
X242824Y428498D02*
G03*
X229616Y415290I0J-13208D01*
G01*
Y353060D02*
G03*
X242316Y340360I12700J0D01*
G01*
X606552Y70612D02*
X613664Y127000D01*
X677418Y80010D02*
X776224D01*
X710946Y490220D02*
Y499618D01*
X827024Y148336D02*
X856996D01*
X882396Y173736D02*
Y499618D01*
X736346Y525018D02*
X856996D01*
X494284Y81280D02*
Y110758D01*
X519684Y55880D02*
X653288D01*
X801624Y105410D02*
Y122936D01*
X468884Y74930D02*
Y110758D01*
X494284Y49530D02*
X657860D01*
X680974Y72644D02*
X787400D01*
X812800Y98044D02*
Y115824D01*
X836422Y139446D02*
X871220D01*
X891032Y159258D02*
Y509524D01*
X727456Y534924D02*
X865632D01*
X702056Y495054D02*
Y509524D01*
Y390906D02*
Y485386D01*
X742188Y359918D02*
Y482346D01*
X723900Y503936D02*
X726186D01*
X751586Y343916D02*
Y478536D01*
X708071Y327732D02*
X734448Y326900D01*
X640588Y326898D02*
X702363D01*
X634667Y325508D02*
X634680Y325511D01*
X632831Y337544D02*
X716651Y334520D01*
X610362Y342900D02*
X631377Y326211D01*
X634680Y325511D02*
X639645Y326780D01*
X767842Y552196D02*
Y593598D01*
X352806Y618998D02*
X742442D01*
X330454Y393192D02*
Y596646D01*
X285242Y373126D02*
X310388D01*
X245440Y391160D02*
X254000D01*
X795020Y551688D02*
Y618744D01*
X291592Y635762D02*
X778002D01*
X279400Y416560D02*
Y448859D01*
Y479765D02*
Y623570D01*
X819912Y552958D02*
Y619760D01*
X273812Y645160D02*
X794512D01*
X248412Y480822D02*
Y619760D01*
X253086Y470916D02*
X263572D01*
X266777Y452347D02*
X275220Y454983D01*
X242824Y428498D02*
X248735D01*
X229616Y353060D02*
Y415290D01*
X242316Y340360D02*
X245440D01*
D60*
X707628Y314560D02*
D03*
X832628D02*
D03*
X707628Y264560D02*
D03*
D61*
X832628D02*
D03*
D62*
X640026Y574802D02*
D03*
D63*
X716026D02*
D03*
D64*
X400380Y261620D02*
D03*
X166040Y441960D02*
D03*
D65*
X400380Y287020D02*
D03*
Y312420D02*
D03*
Y337820D02*
D03*
Y363220D02*
D03*
Y388620D02*
D03*
Y414020D02*
D03*
Y439420D02*
D03*
X320980D02*
D03*
Y414020D02*
D03*
Y388620D02*
D03*
Y363220D02*
D03*
Y337820D02*
D03*
Y312420D02*
D03*
Y287020D02*
D03*
Y261620D02*
D03*
X245440Y441960D02*
D03*
Y416560D02*
D03*
Y391160D02*
D03*
Y365760D02*
D03*
Y340360D02*
D03*
Y314960D02*
D03*
Y289560D02*
D03*
Y264160D02*
D03*
X166040D02*
D03*
Y289560D02*
D03*
Y314960D02*
D03*
Y340360D02*
D03*
Y365760D02*
D03*
Y391160D02*
D03*
Y416560D02*
D03*
D66*
X487680Y474980D02*
D03*
X406400Y558800D02*
D03*
X292100Y599440D02*
D03*
X177800Y558800D02*
D03*
X93980Y474980D02*
D03*
X60960Y355600D02*
D03*
X91440Y233680D02*
D03*
X177800Y152400D02*
D03*
X292100Y111760D02*
D03*
X406400Y149860D02*
D03*
X485140Y236220D02*
D03*
X509016Y361950D02*
D03*
X797306Y439166D02*
D03*
D67*
X462280Y474980D02*
D03*
X381000Y558800D02*
D03*
X266700Y599440D02*
D03*
X152400Y558800D02*
D03*
X68580Y474980D02*
D03*
X35560Y355600D02*
D03*
X66040Y233680D02*
D03*
X152400Y152400D02*
D03*
X266700Y111760D02*
D03*
X381000Y149860D02*
D03*
X459740Y236220D02*
D03*
X483616Y361950D02*
D03*
D68*
X797306Y464566D02*
D03*
D69*
X560502Y35082D02*
D03*
X646902D02*
D03*
D70*
X560502Y76882D02*
D03*
X646902D02*
D03*
D71*
X632602Y71882D02*
D03*
X574802D02*
D03*
D72*
X443484Y110758D02*
D03*
X468884D02*
D03*
X494284D02*
D03*
D73*
X519684D02*
D03*
D74*
X889000Y558800D02*
D03*
X914400Y508000D02*
D03*
Y406400D02*
D03*
Y304800D02*
D03*
Y203200D02*
D03*
X838200Y558800D02*
D03*
X863600Y508000D02*
D03*
X838200Y355600D02*
D03*
X812800Y508000D02*
D03*
X787400Y355600D02*
D03*
X812800Y304800D02*
D03*
X787400Y254000D02*
D03*
X812800Y203200D02*
D03*
X736600Y660400D02*
D03*
Y558800D02*
D03*
X762000Y406400D02*
D03*
Y304800D02*
D03*
X736600Y254000D02*
D03*
X762000Y203200D02*
D03*
X736600Y152400D02*
D03*
Y50800D02*
D03*
X685800Y660400D02*
D03*
X711200Y609600D02*
D03*
X685800Y558800D02*
D03*
Y355600D02*
D03*
Y254000D02*
D03*
X635000Y660400D02*
D03*
X660400Y609600D02*
D03*
X635000Y355600D02*
D03*
X660400Y304800D02*
D03*
X635000Y254000D02*
D03*
X660400Y203200D02*
D03*
X635000Y152400D02*
D03*
X660400Y101600D02*
D03*
X584200Y660400D02*
D03*
X609600Y609600D02*
D03*
Y508000D02*
D03*
Y406400D02*
D03*
X584200Y152400D02*
D03*
X533400Y660400D02*
D03*
X558800Y508000D02*
D03*
X533400Y457200D02*
D03*
Y355600D02*
D03*
Y152400D02*
D03*
X558800Y101600D02*
D03*
X482600Y660400D02*
D03*
X508000Y609600D02*
D03*
Y508000D02*
D03*
X482600Y457200D02*
D03*
X508000Y406400D02*
D03*
X482600Y254000D02*
D03*
Y152400D02*
D03*
X431800Y660400D02*
D03*
X457200Y609600D02*
D03*
X431800Y558800D02*
D03*
X457200Y508000D02*
D03*
X431800Y457200D02*
D03*
X457200Y406400D02*
D03*
X431800Y355600D02*
D03*
X457200Y304800D02*
D03*
X431800Y254000D02*
D03*
Y152400D02*
D03*
X457200Y101600D02*
D03*
X431800Y50800D02*
D03*
X406400Y609600D02*
D03*
X381000Y457200D02*
D03*
Y355600D02*
D03*
Y254000D02*
D03*
X406400Y101600D02*
D03*
X381000Y50800D02*
D03*
X330200Y660400D02*
D03*
X355600Y609600D02*
D03*
X330200Y355600D02*
D03*
Y152400D02*
D03*
X355600Y101600D02*
D03*
X279400Y660400D02*
D03*
X304800Y609600D02*
D03*
Y406400D02*
D03*
X279400Y254000D02*
D03*
X304800Y101600D02*
D03*
X279400Y50800D02*
D03*
X228600Y660400D02*
D03*
Y558800D02*
D03*
X254000Y406400D02*
D03*
Y304800D02*
D03*
X228600Y254000D02*
D03*
Y152400D02*
D03*
Y50800D02*
D03*
X177800Y660400D02*
D03*
X203200Y609600D02*
D03*
X177800Y457200D02*
D03*
X203200Y406400D02*
D03*
X177800Y355600D02*
D03*
X203200Y304800D02*
D03*
X177800Y254000D02*
D03*
X203200Y101600D02*
D03*
X177800Y50800D02*
D03*
X152400Y609600D02*
D03*
X127000Y558800D02*
D03*
X152400Y406400D02*
D03*
Y304800D02*
D03*
X127000Y254000D02*
D03*
Y152400D02*
D03*
X152400Y101600D02*
D03*
X101600Y609600D02*
D03*
X76200Y558800D02*
D03*
X101600Y508000D02*
D03*
Y304800D02*
D03*
X76200Y254000D02*
D03*
X101600Y203200D02*
D03*
X76200Y152400D02*
D03*
X101600Y101600D02*
D03*
X50800Y508000D02*
D03*
X25400Y457200D02*
D03*
X50800Y406400D02*
D03*
Y304800D02*
D03*
Y203200D02*
D03*
D75*
X516128Y432054D02*
D03*
X605790Y216916D02*
D03*
X316484Y200660D02*
D03*
X784352Y114300D02*
D03*
X618490Y477520D02*
D03*
X665226Y361696D02*
D03*
X442722Y550926D02*
D03*
X795020Y551688D02*
D03*
X710946Y490220D02*
D03*
X704850Y388112D02*
D03*
X767842Y552196D02*
D03*
X819912Y552958D02*
D03*
X723900Y503936D02*
D03*
X735330Y489204D02*
D03*
X632831Y337544D02*
D03*
X610362Y342900D02*
D03*
X285242Y373126D02*
D03*
X272288Y464312D02*
D03*
D76*
X613664Y127000D02*
D03*
X606552Y70612D02*
D03*
M02*
