G04*
G04 #@! TF.GenerationSoftware,Altium Limited,Altium Designer,25.2.1 (25)*
G04*
G04 Layer_Color=16711935*
%FSLAX44Y44*%
%MOMM*%
G71*
G04*
G04 #@! TF.SameCoordinates,6E252725-9D57-42C9-A0AC-82CA327B04A9*
G04*
G04*
G04 #@! TF.FilePolarity,Positive*
G04*
G01*
G75*
%ADD77C,0.1000*%
D77*
X800102Y183016D02*
Y200016D01*
X832102Y183016D02*
Y200016D01*
X800102D02*
X832102D01*
X800102Y183016D02*
X832102D01*
X716536Y180984D02*
X748536D01*
X716536Y197984D02*
X748536D01*
Y180984D02*
Y197984D01*
X716536Y180984D02*
Y197984D01*
X781306Y385200D02*
Y402200D01*
X813306Y385200D02*
Y402200D01*
X781306D02*
X813306D01*
X781306Y385200D02*
X813306D01*
X212092Y469274D02*
X244092D01*
X212092Y486274D02*
X244092D01*
Y469274D02*
Y486274D01*
X212092Y469274D02*
Y486274D01*
X316994Y236846D02*
X348994D01*
X316994Y219846D02*
X348994D01*
X316994D02*
Y236846D01*
X348994Y219846D02*
Y236846D01*
X457202Y519312D02*
X489202D01*
X457202Y536312D02*
X489202D01*
Y519312D02*
Y536312D01*
X457202Y519312D02*
Y536312D01*
X314708Y521852D02*
X346708D01*
X314708Y538852D02*
X346708D01*
Y521852D02*
Y538852D01*
X314708Y521852D02*
Y538852D01*
X235714Y535060D02*
X267714D01*
X235714Y552060D02*
X267714D01*
Y535060D02*
Y552060D01*
X235714Y535060D02*
Y552060D01*
X120260Y527560D02*
Y559560D01*
X103260Y527560D02*
Y559560D01*
X120260D01*
X103260Y527560D02*
X120260D01*
X65534Y429632D02*
X97534D01*
X65534Y412632D02*
X97534D01*
X65534D02*
Y429632D01*
X97534Y412632D02*
Y429632D01*
X98046Y351654D02*
X130046D01*
X98046Y334654D02*
X130046D01*
X98046D02*
Y351654D01*
X130046Y334654D02*
Y351654D01*
X86108Y298060D02*
X118108D01*
X86108Y281060D02*
X118108D01*
X86108D02*
Y298060D01*
X118108Y281060D02*
Y298060D01*
X157482Y206384D02*
X189482D01*
X157482Y223384D02*
X189482D01*
Y206384D02*
Y223384D01*
X157482Y206384D02*
Y223384D01*
X286260Y174870D02*
X318260D01*
X286260Y157870D02*
X318260D01*
X286260D02*
Y174870D01*
X318260Y157870D02*
Y174870D01*
X393194Y211700D02*
X425194D01*
X393194Y194700D02*
X425194D01*
X393194D02*
Y211700D01*
X425194Y194700D02*
Y211700D01*
X471172Y284362D02*
X503172D01*
X471172Y301362D02*
X503172D01*
Y284362D02*
Y301362D01*
X471172Y284362D02*
Y301362D01*
X444618Y341886D02*
Y373886D01*
X427618Y341886D02*
Y373886D01*
X444618D01*
X427618Y341886D02*
X444618D01*
X536076Y438402D02*
X553076D01*
X536076Y406402D02*
X553076D01*
Y438402D01*
X536076Y406402D02*
Y438402D01*
X538482Y242452D02*
X570482D01*
X538482Y259452D02*
X570482D01*
Y242452D02*
Y259452D01*
X538482Y242452D02*
Y259452D01*
X591060Y201794D02*
X623060D01*
X591060Y184794D02*
X623060D01*
X591060D02*
Y201794D01*
X623060Y184794D02*
Y201794D01*
X631326Y428500D02*
X648326D01*
X631326Y460500D02*
X648326D01*
X631326Y428500D02*
Y460500D01*
X648326Y428500D02*
Y460500D01*
X585860Y429516D02*
X602860D01*
X585860Y461516D02*
X602860D01*
X585860Y429516D02*
Y461516D01*
X602860Y429516D02*
Y461516D01*
X747404Y100332D02*
Y132332D01*
X764404Y100332D02*
Y132332D01*
X747404Y100332D02*
X764404D01*
X747404Y132332D02*
X764404D01*
X706764Y100332D02*
Y132332D01*
X723764Y100332D02*
Y132332D01*
X706764Y100332D02*
X723764D01*
X706764Y132332D02*
X723764D01*
X542680Y117350D02*
X559680D01*
X542680Y149350D02*
X559680D01*
X542680Y117350D02*
Y149350D01*
X559680Y117350D02*
Y149350D01*
X667902Y148842D02*
X684902D01*
X667902Y116842D02*
X684902D01*
Y148842D01*
X667902Y116842D02*
Y148842D01*
X552078Y218184D02*
X569078D01*
X552078Y186184D02*
X569078D01*
Y218184D01*
X552078Y186184D02*
Y218184D01*
X442216Y631562D02*
X474216D01*
X442216Y614562D02*
X474216D01*
X442216D02*
Y631562D01*
X474216Y614562D02*
Y631562D01*
X442216Y583302D02*
X474216D01*
X442216Y566302D02*
X474216D01*
X442216D02*
Y583302D01*
X474216Y566302D02*
Y583302D01*
X642756Y217930D02*
X659756D01*
X642756Y185930D02*
X659756D01*
Y217930D01*
X642756Y185930D02*
Y217930D01*
X852560Y345438D02*
X869560D01*
X852560Y313438D02*
X869560D01*
Y345438D01*
X852560Y313438D02*
Y345438D01*
M02*
